<svg width="262" height="282" viewBox="0 0 262 282" fill="none" xmlns="http://www.w3.org/2000/svg">
<path d="M74.8499 106.7H52.0543C51.4198 106.7 50.7915 106.574 50.2055 106.332C49.6193 106.089 49.0866 105.732 48.6384 105.284C48.1899 104.834 47.8346 104.301 47.5922 103.715C47.35 103.129 47.2256 102.5 47.2266 101.866V47.0585C47.2266 46.4246 47.3515 45.7969 47.594 45.2113C47.8368 44.626 48.1924 44.0939 48.6409 43.6458C49.0891 43.1976 49.6214 42.8423 50.2071 42.6001C50.7927 42.3579 51.4204 42.2333 52.0543 42.2339H89.6885C90.3237 42.2317 90.9527 42.3551 91.5402 42.5964C92.1274 42.8379 92.6612 43.1929 93.1113 43.6411C93.561 44.0893 93.9182 44.6219 94.1619 45.2082C94.4057 45.7947 94.5316 46.4234 94.5319 47.0585V61.8411" stroke="#CCDDE2" stroke-width="1.40252" stroke-miterlimit="10"/>
<path d="M88.5447 48.8749H53.6906C52.3566 48.8749 51.2751 49.9564 51.2751 51.2904V57.7981C51.2751 59.132 52.3566 60.2135 53.6906 60.2135H88.5447C89.8786 60.2135 90.9601 59.132 90.9601 57.7981V51.2904C90.9601 49.9564 89.8786 48.8749 88.5447 48.8749Z" stroke="#CCDDE2" stroke-width="1.40252" stroke-miterlimit="10"/>
<path d="M70.8729 53.65C71.5203 53.65 72.0448 53.1252 72.0448 52.4782C72.0448 51.8308 71.5203 51.3063 70.8729 51.3063C70.2256 51.3063 69.701 51.8308 69.701 52.4782C69.701 53.1252 70.2256 53.65 70.8729 53.65Z" fill="white"/>
<path d="M67.5973 57.7856C67.5698 57.339 67.6337 56.8914 67.7858 56.4704C67.9379 56.0493 68.1745 55.6638 68.4811 55.3377C68.7875 55.0117 69.1578 54.7518 69.5686 54.5742C69.9794 54.3965 70.4222 54.3049 70.8698 54.3049C71.3174 54.3049 71.7602 54.3965 72.171 54.5742C72.5818 54.7518 72.9521 55.0117 73.2587 55.3377C73.5651 55.6638 73.8017 56.0493 73.9538 56.4704C74.1059 56.8914 74.1701 57.339 74.1423 57.7856H67.5973Z" fill="white"/>
<path d="M71.1128 72.3659C69.8633 72.3659 68.6419 72.7364 67.6031 73.4305C66.564 74.1249 65.7543 75.1114 65.2762 76.2658C64.7981 77.4202 64.6728 78.6906 64.9165 79.9161C65.1605 81.1416 65.7621 82.267 66.6456 83.1506C67.5292 84.0342 68.6547 84.636 69.8801 84.8798C71.1056 85.1235 72.376 84.9982 73.5304 84.5201C74.6849 84.042 75.6716 83.2323 76.3657 82.1935C77.0598 81.1544 77.4304 79.9329 77.4304 78.6834C77.4307 77.8538 77.2677 77.0322 76.9504 76.2655C76.6328 75.4988 76.1675 74.8022 75.5809 74.2153C74.994 73.6288 74.2975 73.1634 73.5311 72.8462C72.7643 72.5286 71.9425 72.3656 71.1128 72.3659ZM71.1128 83.4738C70.894 83.4376 70.6955 83.3251 70.5521 83.1562C70.4087 82.9873 70.3299 82.7729 70.3299 82.5513C70.3299 82.3297 70.4087 82.1152 70.5521 81.9463C70.6955 81.7774 70.894 81.6649 71.1128 81.6287C71.2465 81.6066 71.3836 81.6141 71.5145 81.6502C71.6451 81.6864 71.7664 81.7506 71.8699 81.8385C71.9733 81.9261 72.0565 82.0354 72.1136 82.1586C72.1706 82.2817 72.1999 82.4157 72.1999 82.5513C72.1999 82.6868 72.1706 82.8212 72.1136 82.9443C72.0565 83.0674 71.9733 83.1765 71.8699 83.2644C71.7664 83.3519 71.6451 83.4161 71.5145 83.4523C71.3836 83.4888 71.2465 83.4959 71.1128 83.4738ZM72.2816 76.3708C72.131 77.7681 71.8739 79.1519 71.5117 80.5098C71.4737 80.5824 71.4167 80.6429 71.3466 80.6853C71.2764 80.7277 71.1963 80.7501 71.1144 80.7501C71.0324 80.7501 70.9523 80.7277 70.8822 80.6853C70.812 80.6429 70.755 80.5824 70.717 80.5098C70.4287 79.5087 70.2077 78.4893 70.0562 77.4586C69.9285 76.7106 69.4921 75.495 69.9098 74.7657C70.2775 74.1143 71.3185 74.0364 71.92 74.3761C72.6587 74.7969 72.3688 75.6883 72.2816 76.3708Z" fill="white"/>
<path d="M55.2427 65.2753H86.1012" stroke="#CCDDE2" stroke-width="1.40252" stroke-miterlimit="10"/>
<path d="M55.2427 68.3141H86.1012" stroke="#CCDDE2" stroke-width="1.40252" stroke-miterlimit="10"/>
<path d="M55.2427 87.8715H86.1012" stroke="#CCDDE2" stroke-width="1.40252" stroke-miterlimit="10"/>
<path d="M62.411 90.746H78.9327" stroke="#CCDDE2" stroke-width="1.40252" stroke-miterlimit="10"/>
<path d="M245.882 94.9875H198.58C194.642 94.9875 191.449 98.1803 191.449 102.119V182.907C191.449 186.845 194.642 190.038 198.58 190.038H245.882C249.82 190.038 253.013 186.845 253.013 182.907V102.119C253.013 98.1803 249.82 94.9875 245.882 94.9875Z" fill="#5667FD"/>
<path d="M181.223 94.9875H148.286C144.347 94.9875 141.155 98.1803 141.155 102.119V182.907C141.155 186.845 144.347 190.038 148.286 190.038H181.223C185.161 190.038 188.354 186.845 188.354 182.907V102.119C188.354 98.1803 185.161 94.9875 181.223 94.9875Z" fill="#5667FD"/>
<path d="M143.882 238.371H252.673C254.553 238.371 256.356 237.624 257.685 236.295C259.015 234.966 259.762 233.164 259.764 231.284V96.2404C259.764 95.3092 259.581 94.3869 259.225 93.5264C258.869 92.6659 258.346 91.8842 257.688 91.2257C257.03 90.5671 256.248 90.0451 255.387 89.6888C254.527 89.3326 253.605 89.1493 252.673 89.1499H178.739L159.415 89.2653H159.359L149.588 89.6455H149.557L146.986 89.7452H146.758L146.568 91.2755L146.194 94.1211C146.198 94.1264 146.201 94.1329 146.201 94.1398C146.201 94.1463 146.198 94.1529 146.194 94.1585L143.152 98.6652L142.529 99.5784L140.812 110.568V110.621C140.774 110.605 140.737 110.584 140.69 110.559C140.653 110.537 140.617 110.512 140.584 110.484C140.006 110.049 139.572 109.451 139.338 108.766C138.767 107.32 138.63 105.404 138.624 103.883L138.25 112.232V112.263L137.729 123.418L137.602 126.413C137.845 125.98 138.194 125.357 138.599 124.612L137.305 132.877L137.037 138.833L136.37 153.884L136.346 154.445V154.66L136.171 158.325V158.409C136.171 158.409 135.672 169.165 135.672 169.181L135.626 170.178L135.049 174.532L133.366 186.715V231.284C133.366 232.554 133.708 233.8 134.357 234.892C135.005 235.984 135.935 236.881 137.05 237.489C139.16 238.633 141.494 238.481 143.813 238.403C144.436 238.384 145.06 238.356 145.683 238.322" fill="#5667FD"/>
<path d="M139.752 236.047C139.708 236.047 139.662 236.006 139.609 235.991C139.016 235.778 138.456 235.484 137.944 235.118C137.046 234.48 136.315 233.636 135.811 232.656C135.307 231.677 135.046 230.591 135.049 229.489V170.01L133.366 170.817L133.26 170.87L133.032 170.306L131.907 167.501L131.596 166.725L128.75 159.622C128.75 159.622 134.154 137.755 137.729 123.418C139.038 118.154 140.104 113.903 140.553 112.117C140.69 111.584 140.771 111.273 140.787 111.22C140.788 111.207 140.788 111.195 140.787 111.182C140.796 111.076 140.78 110.969 140.74 110.871C140.696 110.756 140.643 110.644 140.581 110.537C140.574 110.515 140.563 110.494 140.55 110.475C140.179 109.844 139.763 109.242 139.303 108.673L138.711 101.34L138.808 101.265L139.257 100.906L142.323 98.4754L143.037 96.5867L144.436 92.9152L145.06 91.279H146.543H146.924H149.607L159.524 91.2478H160.375L179.191 91.1356H251.184C252.09 91.1356 252.988 91.3142 253.825 91.6614C254.663 92.0086 255.424 92.5175 256.064 93.159C256.705 93.8004 257.213 94.5618 257.559 95.3999C257.904 96.2376 258.082 97.1356 258.081 98.0422V229.489C258.082 230.396 257.904 231.293 257.559 232.132C257.213 232.969 256.705 233.731 256.064 234.372C255.424 235.014 254.663 235.523 253.825 235.87C252.988 236.217 252.09 236.396 251.184 236.396H144.013" fill="#B6D6CC"/>
<path d="M146.955 89.3338L149.504 89.3182H149.557L159.344 89.2652H159.412L178.736 89.1499H252.673C254.554 89.1506 256.357 89.8979 257.686 91.2275C259.016 92.5571 259.763 94.3601 259.764 96.2404V231.284C259.762 233.164 259.015 234.966 257.685 236.295C256.356 237.624 254.553 238.371 252.673 238.371H140.263C138.431 238.371 136.675 237.644 135.38 236.348C134.084 235.053 133.357 233.297 133.357 231.465V216.72" stroke="black" stroke-width="1.40252" stroke-miterlimit="10"/>
<path d="M245.882 197.018H148.286C144.347 197.018 141.155 200.211 141.155 204.149V223.974C141.155 227.913 144.347 231.105 148.286 231.105H245.882C249.82 231.105 253.013 227.913 253.013 223.974V204.149C253.013 200.211 249.82 197.018 245.882 197.018Z" fill="white"/>
<path d="M213.615 204.612H150.57C149.236 204.612 148.155 205.693 148.155 207.027V221.588C148.155 222.922 149.236 224.004 150.57 224.004H213.615C214.949 224.004 216.03 222.922 216.03 221.588V207.027C216.03 205.693 214.949 204.612 213.615 204.612Z" fill="#B6D6CC"/>
<path d="M202.304 212.78C203.413 212.78 204.311 211.881 204.311 210.773C204.311 209.664 203.413 208.766 202.304 208.766C201.196 208.766 200.297 209.664 200.297 210.773C200.297 211.881 201.196 212.78 202.304 212.78Z" fill="white"/>
<path d="M196.701 219.848C196.701 218.36 197.291 216.933 198.344 215.881C199.396 214.829 200.823 214.238 202.311 214.238C203.799 214.238 205.225 214.829 206.278 215.881C207.33 216.933 207.921 218.36 207.921 219.848H196.701Z" fill="white"/>
<path d="M233.153 204.614C231.199 204.612 229.287 205.19 227.661 206.275C226.035 207.359 224.768 208.902 224.019 210.707C223.269 212.512 223.073 214.5 223.453 216.417C223.834 218.334 224.774 220.095 226.156 221.478C227.537 222.861 229.298 223.802 231.215 224.184C233.132 224.565 235.119 224.37 236.925 223.622C238.731 222.874 240.274 221.607 241.36 219.982C242.446 218.356 243.025 216.445 243.024 214.491C243.024 213.194 242.769 211.91 242.274 210.712C241.778 209.514 241.051 208.425 240.134 207.508C239.218 206.591 238.13 205.863 236.932 205.367C235.734 204.87 234.45 204.614 233.153 204.614ZM233.153 221.984C232.958 221.993 232.763 221.962 232.58 221.893C232.397 221.825 232.229 221.72 232.088 221.585C231.946 221.45 231.834 221.288 231.757 221.108C231.68 220.928 231.64 220.734 231.64 220.539C231.64 220.343 231.68 220.15 231.757 219.97C231.834 219.79 231.946 219.628 232.088 219.493C232.229 219.358 232.397 219.253 232.58 219.184C232.763 219.116 232.958 219.085 233.153 219.094C233.525 219.111 233.876 219.271 234.132 219.54C234.389 219.809 234.533 220.167 234.533 220.539C234.533 220.911 234.389 221.268 234.132 221.537C233.876 221.806 233.525 221.966 233.153 221.984ZM234.97 210.872C234.659 213.017 234.406 215.267 233.767 217.343C233.624 217.845 232.68 217.845 232.521 217.343C232.068 215.778 231.722 214.185 231.486 212.574C231.287 211.405 230.604 209.504 231.258 208.37C231.835 207.351 233.462 207.229 234.397 207.746C235.563 208.407 235.095 209.807 234.97 210.872Z" fill="#B6D6CC"/>
<path d="M243.644 163.698C243.165 167.828 241.456 171.718 238.738 174.864C236.02 178.009 232.419 180.265 228.402 181.338C224.386 182.411 220.14 182.251 216.215 180.88C212.29 179.508 208.869 176.989 206.395 173.648C203.921 170.307 202.508 166.299 202.34 162.145C202.173 157.992 203.259 153.883 205.456 150.354C207.653 146.825 210.861 144.038 214.663 142.355C218.464 140.673 222.684 140.172 226.774 140.918C226.953 140.953 227.124 141.024 227.275 141.127C227.427 141.23 227.555 141.363 227.653 141.518C227.751 141.673 227.816 141.846 227.844 142.027C227.872 142.208 227.863 142.393 227.818 142.57L227.409 144.163L223.75 158.45C223.692 158.677 223.695 158.917 223.758 159.143C223.821 159.37 223.943 159.576 224.111 159.74C224.279 159.904 224.487 160.022 224.715 160.081C224.943 160.139 225.182 160.137 225.408 160.073L239.611 156.103L241.553 155.56C241.726 155.512 241.907 155.498 242.085 155.521C242.263 155.544 242.435 155.602 242.59 155.693C242.746 155.783 242.881 155.903 242.989 156.047C243.097 156.191 243.174 156.355 243.217 156.53C243.776 158.876 243.921 161.302 243.644 163.698Z" fill="white"/>
<path d="M244.134 148.975C244.201 149.149 244.23 149.335 244.221 149.522C244.212 149.708 244.163 149.89 244.079 150.057C243.995 150.224 243.876 150.371 243.732 150.489C243.587 150.607 243.419 150.693 243.239 150.742L241.902 151.116L230.336 154.348C230.109 154.411 229.87 154.413 229.642 154.355C229.415 154.296 229.206 154.179 229.038 154.014C228.87 153.85 228.749 153.644 228.685 153.418C228.622 153.191 228.619 152.952 228.678 152.724L231.667 141.093L231.953 139.977C231.999 139.799 232.08 139.633 232.192 139.488C232.304 139.344 232.445 139.224 232.605 139.136C232.766 139.049 232.943 138.995 233.125 138.979C233.307 138.962 233.491 138.984 233.665 139.042C236.018 139.854 238.169 141.161 239.975 142.874C241.781 144.587 243.199 146.667 244.134 148.975Z" fill="white"/>
<path d="M222.765 113.575C225.912 113.575 228.463 111.024 228.463 107.878C228.463 104.731 225.912 102.18 222.765 102.18C219.619 102.18 217.068 104.731 217.068 107.878C217.068 111.024 219.619 113.575 222.765 113.575Z" fill="white"/>
<path d="M243.781 120.469H202.307V121.61H243.781V120.469Z" fill="white"/>
<path d="M243.781 124.689H202.307V125.829H243.781V124.689Z" fill="white"/>
<path d="M243.781 128.536H202.307V129.677H243.781V128.536Z" fill="white"/>
<path d="M181.092 144.3H148.604V145.44H181.092V144.3Z" fill="white"/>
<path d="M181.092 148.903H148.604V150.044H181.092V148.903Z" fill="white"/>
<path d="M181.092 153.504H148.604V154.644H181.092V153.504Z" fill="white"/>
<path d="M181.092 158.107H148.604V159.248H181.092V158.107Z" fill="white"/>
<path d="M181.092 162.71H148.604V163.851H181.092V162.71Z" fill="white"/>
<path d="M144.147 111.887C144.147 111.887 154.02 127.436 165.272 132.323C176.523 137.21 180.039 139.37 184.343 137.621C188.647 135.873 196.909 133.423 202.731 116.116C208.553 98.8089 211.327 89.6988 211.533 85.5068C211.739 81.3149 200.163 84.7588 200.163 84.7588C200.163 84.7588 193.93 103.132 180.272 111.332L160.821 90.7865L144.147 111.887Z" fill="white"/>
<path d="M132.609 135.782L140.556 137.939C140.556 137.939 131.328 150.665 139.534 163.989C147.74 177.312 164.639 204.194 164.639 204.194L196.984 255.62L166.733 251.403L144.147 226.662L132.615 215.165L118.163 170.051L132.609 135.782Z" fill="white"/>
<path d="M2.84153 201.545C3.55613 201.931 4.3833 202.056 5.18006 201.897C5.97681 201.738 6.69312 201.306 7.20489 200.675L18.9673 186.254L28.4577 174.342L20.6877 169.979C19.883 169.524 18.9305 169.408 18.0401 169.655C17.1494 169.902 16.3932 170.493 15.9379 171.297L1.45772 196.729C1.22705 197.135 1.07978 197.583 1.02459 198.046C0.969389 198.51 1.00735 198.98 1.13626 199.428C1.26516 199.877 1.48243 200.295 1.77528 200.659C2.06812 201.022 2.43062 201.323 2.84153 201.545Z" fill="#2E2E2E"/>
<path d="M181.884 269.567L191.673 279.198C192.518 280.031 193.657 280.498 194.843 280.5H219.325C220.084 280.503 220.828 280.285 221.466 279.873C222.103 279.46 222.607 278.871 222.915 278.177C223.223 277.483 223.323 276.714 223.202 275.965C223.081 275.215 222.744 274.517 222.233 273.955C221.589 273.235 220.7 272.782 219.739 272.684L206.16 271.29L181.884 269.567Z" fill="#2E2E2E"/>
<path d="M92.4841 149.111C92.4841 149.111 111.418 154.378 124.041 155.949C136.663 157.52 135.778 152.284 135.778 152.284L137.321 145.67C141.373 139.069 143.726 125.025 143.726 125.025L145.353 114.039L147.728 118.218L155.404 125.951L155.498 126.026C155.264 122.333 155.441 117.143 156.302 110.075C158.284 93.7118 164.848 95.6099 164.848 95.6099L163.885 94.5534C159.35 87.0078 144.873 79.0322 140.248 77.1247C135.622 75.2173 137.601 77.9195 138.191 79.9298C138.78 81.9401 137.097 87.5969 130.355 84.717C123.614 81.8372 123.274 75.5726 123.274 75.5726H120.142C100.927 77.8821 91.1564 88.1298 91.1564 88.1298C111.568 92.9451 106.883 110.258 106.883 110.258L105.032 111.951C97.7856 118.234 97.2807 124.293 97.9071 126.817C98.5336 129.342 103.003 132.739 111.072 134.709C119.141 136.679 120.609 136.682 122.432 133.194C124.256 129.707 126.381 129.277 129.289 128.753C132.197 128.229 135.76 130.296 134.946 131.923C134.133 133.55 133.544 132.128 135.569 136.523C137.595 140.917 136.654 143.152 131.206 147.201C125.758 151.249 101.535 148.977 101.535 148.977C89.9502 145.773 92.4841 149.111 92.4841 149.111Z" fill="#2E2E2E"/>
<path d="M136.769 75.6764V76.3402V76.5085C142.185 77.8618 147.285 80.2564 151.786 83.5585C152.515 84.0915 153.226 84.6338 153.927 85.2041C153.946 82.9134 153.749 80.6132 153.01 78.444C152.412 76.5824 151.285 74.9355 149.766 73.7035C148.429 72.6376 146.849 71.955 145.259 71.3379C143.67 70.7208 142.108 70.1785 140.65 69.3464C139.42 68.6741 138.347 67.75 137.499 66.6348C137.201 66.2315 137.016 65.7569 136.961 65.2588C136.906 64.7608 136.984 64.2571 137.187 63.7986C137.044 63.7887 136.902 63.7606 136.766 63.7145L136.769 75.6764Z" fill="#5667FD"/>
<path d="M136.769 75.6764V76.3402V76.5085C142.185 77.8618 147.285 80.2564 151.786 83.5585C152.515 84.0915 153.226 84.6338 153.927 85.2041C153.946 82.9134 153.749 80.6132 153.01 78.444C152.412 76.5824 151.285 74.9355 149.766 73.7035C148.429 72.6376 146.849 71.955 145.259 71.3379C143.67 70.7208 142.108 70.1785 140.65 69.3464C139.42 68.6741 138.347 67.75 137.499 66.6348C137.201 66.2315 137.016 65.7569 136.961 65.2588C136.906 64.7608 136.984 64.2571 137.187 63.7986C137.044 63.7887 136.902 63.7606 136.766 63.7145L136.769 75.6764Z" fill="#5667FD"/>
<path d="M61.9467 127.42C63.9816 128.876 66.2437 129.985 68.6414 130.702C69.6727 131.02 70.7205 131.282 71.7799 131.488C67.5941 121.623 70.7264 108.645 83.935 94.807C86.1965 92.4337 88.6045 90.204 91.144 88.1311C95.2487 84.7931 98.8952 82.3059 103.196 80.305C105.122 79.4164 107.099 78.6454 109.118 77.9955C112.698 76.804 116.392 75.9921 120.142 75.5739C120.993 75.471 121.834 75.3962 122.685 75.3495C122.477 73.888 122.519 72.4023 122.807 70.9549C123.592 66.9811 124.96 64.6966 127.447 61.5643C129.006 59.5914 131.44 54.8789 128.195 53.252C126.148 52.2329 125.961 50.1353 126.924 48.8886C127.737 47.804 129.383 47.3085 131.412 48.577C132.814 49.4746 134.479 49.5307 136.087 49.0912C137.336 48.3635 138.419 47.3826 139.266 46.2114C141.622 42.836 141.706 37.7215 138.019 35.2437C136.009 33.8879 133.447 33.5607 131.044 33.8225C129.968 33.9406 128.908 34.1725 127.881 34.5144C127.876 34.5122 127.871 34.5113 127.867 34.5113C127.862 34.5113 127.857 34.5122 127.853 34.5144C123.489 36.8613 120.388 41.1997 118.892 46.0898C118.013 48.979 117.022 51.8402 115.863 54.6452C114.909 56.9453 114.245 59.741 112.122 61.3118C111.235 61.9679 110.228 62.4444 109.159 62.7143C105.147 65.2576 99.584 63.7896 95.1988 63.2473C91.6928 62.7679 88.1232 63.1267 84.7828 64.2945C81.0427 66.1863 77.8263 69.2064 75.2176 73.1335C70.9072 79.6318 75.4701 89.0006 68.2611 94.1245C66.0794 95.6673 63.5861 96.6023 61.2018 97.7991C57.7983 99.5288 55.0494 101.988 54.0334 105.775C52.0262 113.414 55.598 122.811 61.9467 127.42Z" fill="#5667FD"/>
<path d="M238.212 280.5H67.6533" stroke="black" stroke-width="1.40252" stroke-miterlimit="10"/>
<path d="M143.025 43.1343C143.463 44.0425 143.837 44.9797 144.147 45.9393C144.595 47.4977 144.109 48.4639 144.792 49.9505C145.025 50.4648 145.362 51.3343 145.727 52.2133C145.83 52.0076 145.923 51.8393 145.979 51.7084C148.653 45.7523 145.138 42.8818 143.445 41.9001C143.337 42.3221 143.197 42.7347 143.025 43.1343Z" fill="#5667FD"/>
<path d="M143.025 43.1343C143.463 44.0425 143.837 44.9797 144.147 45.9393C144.595 47.4977 144.109 48.4639 144.792 49.9505C145.025 50.4648 145.362 51.3343 145.727 52.2133C145.83 52.0076 145.923 51.8393 145.979 51.7084C148.653 45.7523 145.138 42.8818 143.445 41.9001C143.337 42.3221 143.197 42.7347 143.025 43.1343Z" fill="#5667FD"/>
<path d="M83.7698 143.614C82.1367 156.493 83.4582 178.833 109.832 195.925C114.578 199.001 118.851 203.346 123.037 207.102C134.453 217.418 145.314 228.334 155.572 239.802C161.853 246.765 168.264 254.083 174.631 261.133C177.895 264.736 181.195 268.305 184.53 271.842C186.986 274.432 190.882 280.497 194.83 280.497H219.097C221.279 280.497 223.261 278.711 223.23 276.52C223.212 275.573 222.854 274.665 222.22 273.961C221.576 273.241 220.687 272.788 219.727 272.69L206.147 271.296L140.537 166.955C137.153 161.57 134.151 152.706 136.769 146.899C146.743 124.814 145.886 103.409 145.886 103.409" stroke="black" stroke-width="1.40252" stroke-miterlimit="10"/>
<path d="M117.739 202.638C114.878 212.69 110.259 222.897 106.444 229.323C105.062 231.67 103.239 233.727 101.077 235.382C93.2602 241.369 82.2115 240.73 74.7158 234.351L37.4369 202.619L18.9704 186.254L7.20798 200.675C6.65196 201.351 5.86219 201.795 4.99496 201.918C4.12777 202.04 3.24603 201.834 2.52382 201.338C1.80162 200.843 1.29145 200.094 1.09407 199.241C0.896685 198.388 1.02643 197.491 1.45766 196.729L15.941 171.303C16.3963 170.498 17.1524 169.908 18.0432 169.661C18.9336 169.413 19.8861 169.53 20.6908 169.984L28.4608 174.348L72.9798 199.281C73.7203 199.696 74.5487 199.928 75.3968 199.96C76.2452 199.992 77.0885 199.822 77.858 199.464C78.6276 199.106 79.3014 198.571 79.8234 197.902C80.3458 197.233 80.7017 196.45 80.8619 195.616L86.1354 167.965" stroke="black" stroke-width="1.40252" stroke-miterlimit="10"/>
<path d="M136.769 61.8625V75.576V76.2399V76.4082C138.181 78.4652 138.892 81.3949 137.545 83.5766C135.741 86.5032 131.758 86.017 129.233 84.3807C128.49 83.9001 127.781 83.369 127.111 82.7912C124.863 80.8389 123.409 78.1314 123.022 75.1802C122.814 73.7188 122.855 72.2331 123.143 70.7857C123.935 66.815 125.3 64.5336 127.79 61.3919C129.348 59.4284 131.779 54.7097 128.532 53.0828C124.726 51.1847 127.363 45.6308 131.748 48.4077C135.152 50.5676 140.042 47.8748 142.061 44.9794C144.418 41.604 144.502 36.4895 140.815 34.0117C138.804 32.6559 136.243 32.3287 133.84 32.5905C126.518 33.3946 121.307 39.1168 119.222 45.9237C118.343 48.8129 117.352 51.674 116.193 54.4791C115.239 56.7792 114.575 59.5749 112.453 61.1457C108.401 64.1658 102.56 62.5856 97.9881 62.0246C88.4697 60.8559 80.7933 65.0728 75.5479 72.9674C71.2375 79.4657 75.8003 88.8345 68.5914 93.9584C66.4097 95.5011 63.9163 96.4361 61.5321 97.633C58.1286 99.3627 55.3797 101.822 54.3792 105.609C52.3596 113.238 55.9376 122.635 62.2801 127.245C65.1879 129.358 68.5914 130.62 72.1257 131.312" stroke="black" stroke-width="1.40252" stroke-miterlimit="10"/>
<path d="M155.56 86.9804C155.579 86.8058 155.585 86.6375 155.594 86.4724C155.753 83.4585 155.734 80.3356 154.753 77.4339C154.15 75.5745 153.022 73.9289 151.505 72.6965C150.165 71.6337 148.585 70.9449 147.001 70.3278C145.418 69.7107 143.847 69.1747 142.392 68.3394C141.16 67.6699 140.085 66.7443 139.241 65.6247C138.945 65.2227 138.76 64.7496 138.706 64.2531C138.651 63.7569 138.728 63.2548 138.929 62.7979" stroke="black" stroke-width="1.40252" stroke-miterlimit="10"/>
<path d="M133.818 58.7708C134.921 60.3479 136.417 62.0496 138.303 62.6636C140.743 63.4583 142.386 61.3857 143.261 59.3692C143.785 58.1693 144.147 56.8914 144.57 55.651C144.708 55.2427 144.792 55.0463 145.259 55.0276C145.727 55.0089 146.219 55.1024 146.699 55.1024C146.733 55.1015 146.767 55.0915 146.796 55.0738C146.825 55.056 146.849 55.0308 146.865 55.0005C146.881 54.9703 146.889 54.9366 146.888 54.9024C146.887 54.8684 146.876 54.835 146.858 54.8064C146.213 53.8246 145.25 51.1473 144.764 50.0752C144.087 48.5885 144.577 47.6255 144.122 46.064C143.812 45.1053 143.439 44.1681 143.006 43.259" stroke="black" stroke-width="1.40252" stroke-miterlimit="10"/>
<path d="M143.726 40.376C143.726 40.376 150.38 42.9286 146.942 50.5988C146.73 51.0632 146.21 52.0325 145.964 52.4688" stroke="black" stroke-width="1.40252" stroke-miterlimit="10"/>
<path d="M215.5 18.5067C215.5 18.5067 215.538 18.5254 215.613 18.5535L215.5 18.5067Z" fill="#5667FD"/>
<path d="M143.358 59.1479C142.825 59.2212 142.284 59.0974 141.836 58.8004C141.388 58.5031 141.064 58.0527 140.924 57.5335" stroke="black" stroke-width="1.40252" stroke-miterlimit="10"/>
<path d="M144.483 48.8759C143.106 47.7539 141.594 49.1876 140.672 50.2285" stroke="black" stroke-width="1.40252" stroke-miterlimit="10"/>
<path d="M123.031 75.183C118.411 75.4757 113.848 76.3627 109.455 77.8229C102.286 80.1729 97.3493 83.2054 91.493 87.9584C88.9538 90.0354 86.5462 92.2682 84.2841 94.6437C71.063 108.482 67.937 121.466 72.1289 131.327C75.5355 139.362 83.3896 144.346 91.4369 146.886C96.701 148.544 102.186 149.258 107.691 149.417C114.251 149.604 120.868 149.354 127.326 148.108C130.047 147.584 133.182 147.154 134.806 144.626C136.43 142.099 136.567 138.689 135.361 135.981C134.229 133.459 131.175 130.748 128.413 132.727C128.107 132.948 127.856 133.235 127.677 133.568C127.498 133.901 127.397 134.27 127.382 134.647" stroke="black" stroke-width="1.40252" stroke-miterlimit="10"/>
<path d="M118.041 91.8574C118.384 102.192 109.626 107.955 109.626 107.955C106.721 110.308 103.897 112.836 101.523 115.731C100.005 117.58 98.596 119.649 97.8978 121.965C97.3758 123.544 97.3848 125.25 97.9228 126.824C98.5177 128.279 99.5011 129.542 100.765 130.476C103.128 132.325 106.001 133.282 108.85 134.111C111.989 135.009 115.186 135.69 118.418 136.149C120.288 136.417 121.077 135.837 121.931 134.22C122.704 132.755 123.336 131.059 124.767 130.102C126.749 128.772 129.411 128.463 131.705 129.012C135.242 129.853 136.146 132.658 133.263 133.225" stroke="black" stroke-width="1.40252" stroke-miterlimit="10"/>
<path d="M115.881 161.974L62.1336 148.987L49.3427 201.921L101.6 214.911L103.277 214.142L115.881 161.974Z" fill="white"/>
<path d="M91.0817 154.532C93.6311 136.686 99.157 132.273 102.754 131.391L102.517 131.26C91.6582 127.033 84.1283 147.943 82.5294 152.834L91.0817 154.532Z" fill="white"/>
<path d="M90.932 155.947C93.4814 138.1 99.1569 132.26 102.754 131.39L102.517 131.259C91.6582 127.033 83.8165 148.95 82.2114 153.836L90.932 155.947Z" fill="white"/>
<path d="M102.517 131.259C90.2369 126.484 82.2114 153.836 82.2114 153.836L90.9382 155.947C96.0091 128.52 106.889 133.506 106.889 133.506C106.506 133.391 102.517 131.259 102.517 131.259Z" stroke="black" stroke-width="1.40252" stroke-miterlimit="10"/>
<path d="M61.535 151.51L49.3446 201.938L91.7477 212.189L103.938 161.76L61.535 151.51Z" fill="#5667FD"/>
<path d="M62.182 148.84L49.3456 201.94L93.9933 212.734L106.83 159.634L62.182 148.84Z" fill="white"/>
<path d="M62.3924 152.879L51.3368 198.611C51.0236 199.908 51.8205 201.213 53.117 201.527L90.8248 210.642C92.1213 210.956 93.4266 210.158 93.7402 208.862L104.795 163.13C105.109 161.833 104.312 160.527 103.015 160.214L65.3077 151.099C64.0112 150.785 62.7059 151.582 62.3924 152.879Z" fill="#5667FD"/>
<path d="M62.1424 149.006L49.3462 201.939L93.9942 212.733L106.79 159.799L62.1424 149.006Z" stroke="black" stroke-width="1.40252" stroke-miterlimit="10"/>
<path d="M106.978 159.841L94.1814 212.775L103.094 214.929L115.89 161.996L106.978 159.841Z" fill="white"/>
<path d="M106.978 159.841L94.1814 212.775L103.094 214.929L115.89 161.996L106.978 159.841Z" stroke="black" stroke-width="1.40252" stroke-miterlimit="10"/>
<path d="M103.09 214.912L100.22 207.529L94.1765 212.758" stroke="black" stroke-width="1.40252" stroke-miterlimit="10"/>
<path d="M111.428 160.9L100.22 207.529" stroke="black" stroke-width="1.40252" stroke-miterlimit="10"/>
<path d="M209.747 75.0309C209.579 75.059 209.435 75.087 209.251 75.1244C207.565 75.4187 205.967 76.09 204.576 77.088C203.052 78.2661 201.668 80.3138 200.995 82.0747C199.977 84.7488 198.858 87.3793 197.639 89.9662C195.797 93.954 193.607 97.771 191.093 101.373C188.485 105.039 185.353 108.754 181.407 111.035C180.912 111.334 180.39 111.588 179.848 111.792C179.185 112.073 169.844 101.327 168.815 100.13C164.692 95.3332 160.428 90.5833 155.594 86.4786C154.369 85.4314 153.101 84.4216 151.798 83.4772C147.294 80.1723 142.191 77.7746 136.772 76.4179" stroke="black" stroke-width="1.40252" stroke-miterlimit="10"/>
<path d="M226.552 74.6376C226.571 74.6423 226.59 74.6423 226.608 74.6376C230.928 75.1425 229.236 79.7989 226.197 79.6493C222.84 79.481 219.493 79.6493 216.145 79.7054C215.223 79.6751 214.304 79.8441 213.453 80.2009C211.77 81.005 211.611 82.8003 211.358 84.4272C211.022 86.559 210.638 88.6908 210.186 90.804C209.307 94.9928 208.223 99.1256 206.979 103.221C206.175 105.876 205.287 108.519 204.352 111.134C201.622 118.839 198.181 127.011 192.393 132.951C189.195 136.242 185.006 138.673 180.285 138.318C173.637 137.823 167.241 134.485 161.603 130.688C161.579 130.672 161.557 130.654 161.538 130.632C159.433 129.216 157.416 127.673 155.498 126.013C155.498 126.013 147.728 119.094 145.353 114.027" stroke="black" stroke-width="1.40252" stroke-miterlimit="10"/>
<path d="M238.835 70.45V70.8864C238.835 73.8971 236.41 74.4145 234.316 74.4643L193.777 75.3993C192.001 75.4461 190.508 73.8909 190.47 71.9491V71.8681C190.47 69.9638 191.866 68.3805 193.621 68.3369C193.621 68.3369 216.298 67.698 233.861 67.2149C234.194 68.2777 235.011 69.1005 236.024 69.7425C236.87 70.2515 237.849 70.4977 238.835 70.45Z" stroke="black" stroke-width="1.40252" stroke-miterlimit="10"/>
<path d="M260.372 27.5539C260.371 28.0501 260.254 28.5391 260.029 28.9813L241.911 66.148C241.698 66.5775 241.395 66.9559 241.022 67.2569C240.65 67.5583 240.216 67.7752 239.751 67.8934C239.003 68.0829 238.211 68.0009 237.517 67.6627C236.962 67.3897 236.495 66.9668 236.168 66.4419C235.841 65.9167 235.668 65.3109 235.669 64.6925C235.671 64.1979 235.784 63.7104 235.999 63.2651L254.126 26.0953C254.455 25.4314 254.999 24.8984 255.669 24.5824C256.34 24.2667 257.097 24.1866 257.819 24.3549C258.54 24.5235 259.184 24.9309 259.645 25.5109C260.106 26.0909 260.358 26.8096 260.359 27.5508L260.372 27.5539Z" stroke="black" stroke-width="1.40252" stroke-miterlimit="10"/>
<path d="M211.072 19.9095C216.57 19.9095 221.026 15.4526 221.026 9.95469C221.026 4.45683 216.57 -6.10352e-05 211.072 -6.10352e-05C205.574 -6.10352e-05 201.117 4.45683 201.117 9.95469C201.117 15.4526 205.574 19.9095 211.072 19.9095Z" fill="#5667FD"/>
<path d="M207.908 13.3797C207.578 13.2562 207.269 13.0827 206.992 12.8655C206.503 12.4971 206.167 11.962 206.048 11.362C205.928 10.762 206.033 10.1391 206.344 9.61163C206.545 9.26911 206.824 8.97822 207.158 8.76189C207.492 8.54553 207.871 8.40964 208.267 8.36495C208.047 7.85029 208.002 7.27831 208.137 6.73551C208.272 6.1927 208.58 5.70862 209.014 5.35646C209.449 5.0043 209.986 4.80328 210.545 4.78373C211.104 4.76422 211.654 4.92726 212.113 5.24825C213.076 5.91834 213.743 7.09957 214.151 8.17795C214.362 8.74422 214.516 9.32985 214.612 9.92642C214.659 10.2381 214.977 11.9523 214.727 12.1268C213.082 13.2675 210.018 14.1838 207.908 13.3797Z" fill="white"/>
<g opacity="0.72">
<path opacity="0.72" d="M202.672 40.6752C205.698 40.6752 208.151 38.2223 208.151 35.196C208.151 32.17 205.698 29.7169 202.672 29.7169C199.646 29.7169 197.193 32.17 197.193 35.196C197.193 38.2223 199.646 40.6752 202.672 40.6752Z" fill="#5667FD"/>
<path opacity="0.72" d="M203.757 37.5212C203.625 37.6645 203.471 37.7864 203.302 37.8827C203.011 38.0523 202.669 38.1102 202.339 38.0454C202.009 37.9806 201.714 37.7976 201.51 37.5305C201.376 37.3557 201.284 37.1522 201.242 36.9355C201.201 36.7192 201.21 36.4961 201.27 36.2838C200.963 36.2857 200.664 36.1882 200.417 36.0058C200.171 35.8232 199.99 35.5657 199.902 35.2718C199.814 34.9776 199.824 34.6631 199.93 34.3755C200.036 34.0875 200.233 33.8419 200.49 33.6752C201.075 33.3516 201.741 33.2045 202.407 33.2513C202.74 33.2606 203.071 33.3046 203.395 33.3822C203.56 33.4196 204.502 33.6191 204.539 33.7811C204.779 34.8626 204.608 36.6173 203.757 37.5212Z" fill="white"/>
</g>
<path d="M233.518 23.2382L228.141 26.1046C226.19 27.144 225.452 29.5682 226.492 31.5183L229.358 36.8953C230.398 38.8457 232.822 39.584 234.772 38.5443L240.149 35.6782C242.099 34.6385 242.838 32.2146 241.798 30.2642L238.932 24.8872C237.892 22.9371 235.468 22.1988 233.518 23.2382Z" fill="#5667FD"/>
<path d="M235.672 37.0165L239.565 34.9408C240.376 34.5051 240.983 33.7661 241.251 32.885C241.52 32.0036 241.429 31.0521 240.998 30.2377L238.505 25.5626C238.07 24.7504 237.331 24.1436 236.449 23.8749C235.568 23.6063 234.616 23.6976 233.802 24.129L233.54 24.2692C232.568 25.6187 231.274 27.9282 233.228 28.6544C236.033 29.7047 235.214 31.2787 234.163 33.2952C233.272 34.9876 233.044 36.9667 235.672 37.0165Z" fill="white"/>
<path d="M229.61 31.3566C230.422 31.3566 231.081 30.6977 231.081 29.8855C231.081 29.073 230.422 28.4144 229.61 28.4144C228.797 28.4144 228.139 29.073 228.139 29.8855C228.139 30.6977 228.797 31.3566 229.61 31.3566Z" fill="white"/>
<path d="M211.489 55.9097C212.034 56.1746 212.615 56.3594 213.213 56.4582C214.311 56.6265 215.433 56.5071 216.471 56.1116C217.51 55.7161 218.427 55.0582 219.135 54.2017C219.68 53.5223 220.088 52.6714 220.662 51.9857C221.054 51.4855 221.579 51.1056 222.176 50.8887C222.382 50.845 222.573 50.7518 222.734 50.6175C223.127 50.2123 222.46 49.8695 222.326 49.5422C222.125 49.0143 222.125 48.4308 222.326 47.9029C222.838 46.515 222.852 44.9925 222.367 43.595C221.881 42.1974 220.926 41.0115 219.665 40.2395C218.403 39.4672 216.912 39.1568 215.447 39.3606C213.982 39.5647 212.632 40.2707 211.63 41.3578C210.638 42.4268 210.043 43.7919 209.426 45.0978C208.877 46.2604 208.295 47.4167 207.992 48.6665C207.291 51.6273 208.874 54.6349 211.489 55.9097Z" fill="#5667FD"/>
<path d="M217.056 45.3911C217.822 45.3911 218.443 44.7703 218.443 44.0042C218.443 43.2381 217.822 42.6172 217.056 42.6172C216.29 42.6172 215.669 43.2381 215.669 44.0042C215.669 44.7703 216.29 45.3911 217.056 45.3911Z" fill="white"/>
<path d="M215.239 49.2187C216.005 49.2187 216.626 48.5979 216.626 47.8318C216.626 47.066 216.005 46.4449 215.239 46.4449C214.473 46.4449 213.852 47.066 213.852 47.8318C213.852 48.5979 214.473 49.2187 215.239 49.2187Z" fill="white"/>
<path d="M213.534 52.8092C214.3 52.8092 214.921 52.188 214.921 51.4222C214.921 50.6562 214.3 50.0353 213.534 50.0353C212.768 50.0353 212.147 50.6562 212.147 51.4222C212.147 52.188 212.768 52.8092 213.534 52.8092Z" fill="white"/>
<g opacity="0.54">
<path opacity="0.54" d="M180.241 61.5602C180.663 61.5044 181.079 61.4181 181.488 61.3015L186.182 59.9801C187.618 59.5749 189.13 59.1261 190.149 58.0321C192.038 56.0032 191.427 52.7805 190.695 50.1063C190.098 47.9184 189.501 45.7305 188.902 43.5426C188.491 42.0341 188.067 40.5007 187.248 39.1792C186.428 37.8577 185.131 36.7232 183.585 36.4801C182.448 36.3025 181.295 36.6079 180.182 36.9102L175.678 38.1569C174.201 38.559 172.643 39.0109 171.608 40.1422C169.769 42.1525 170.361 45.3066 171.066 47.934L172.864 54.6505C173.967 58.6866 176.034 62.0901 180.241 61.5602Z" fill="#5667FD"/>
<path opacity="0.54" d="M179.93 52.4005C180.208 52.672 180.552 52.8652 180.929 52.9612C181.305 53.0572 181.7 53.0522 182.074 52.9472C182.448 52.8418 182.788 52.6402 183.059 52.3619C183.331 52.0839 183.524 51.7392 183.62 51.3627L184.143 49.3119L184.664 47.258C184.76 46.8815 184.754 46.4863 184.649 46.1126C184.543 45.7386 184.341 45.3992 184.063 45.1283C183.785 44.8572 183.44 44.6642 183.063 44.5686C182.687 44.4732 182.292 44.4782 181.918 44.5838L179.883 45.1573L177.844 45.7308C177.471 45.8371 177.133 46.0399 176.862 46.3186C176.592 46.5972 176.4 46.9422 176.305 47.3187C176.211 47.6949 176.217 48.0898 176.323 48.4632C176.429 48.8366 176.631 49.1754 176.909 49.4459L178.427 50.9232L179.93 52.4005Z" fill="white"/>
</g>
</svg>
