<svg width="24" height="24" viewBox="0 0 24 24" fill="none" xmlns="http://www.w3.org/2000/svg">
<g id="Group 12765">
<circle id="Ellipse 757" cx="12" cy="12" r="12" fill="#3EE205"/>
<g id="&#240;&#159;&#166;&#134; icon &#34;camera&#34;">
<path id="Vector" d="M4.04959 16.9694V8.93234C4.04959 8.04459 4.76926 7.32492 5.65702 7.32492H6.05887C6.56482 7.32492 7.04124 7.08671 7.34481 6.68195L9.12905 4.30297C9.22011 4.18154 9.36305 4.11008 9.51483 4.11008H14.6586C14.8104 4.11008 14.9533 4.18154 15.0444 4.30297L16.8286 6.68195C17.1322 7.08671 17.6086 7.32492 18.1145 7.32492H18.5164C19.4042 7.32492 20.1238 8.04459 20.1238 8.93234V16.9694C20.1238 17.8572 19.4042 18.5769 18.5164 18.5769H5.65702C4.76926 18.5769 4.04959 17.8572 4.04959 16.9694Z" fill="white" stroke="#3EE205" stroke-width="0.6" stroke-linecap="round" stroke-linejoin="round"/>
<path id="Vector_2" d="M12.0867 15.362C13.8622 15.362 15.3015 13.9227 15.3015 12.1472C15.3015 10.3717 13.8622 8.93234 12.0867 8.93234C10.3112 8.93234 8.87186 10.3717 8.87186 12.1472C8.87186 13.9227 10.3112 15.362 12.0867 15.362Z" fill="white" stroke="#3EE205" stroke-width="0.6" stroke-linecap="round" stroke-linejoin="round"/>
</g>
</g>
</svg>
