<svg width="322" height="314" viewBox="0 0 322 314" fill="none" xmlns="http://www.w3.org/2000/svg">
<g opacity="0.5">
<path fill-rule="evenodd" clip-rule="evenodd" d="M242.805 88.1971C255.542 88.1971 265.868 77.2398 265.868 63.7235C265.868 50.2072 255.542 39.25 242.805 39.25C230.069 39.25 219.743 50.2072 219.743 63.7235C219.743 77.2398 230.069 88.1971 242.805 88.1971Z" fill="#F2F2F2"/>
<path fill-rule="evenodd" clip-rule="evenodd" d="M242.805 45.7147C243.526 45.7147 244.111 45.0945 244.111 44.3294C244.111 43.5643 243.526 42.9441 242.805 42.9441C242.084 42.9441 241.5 43.5643 241.5 44.3294C241.5 45.0945 242.084 45.7147 242.805 45.7147Z" fill="black" fill-opacity="0.1"/>
<path fill-rule="evenodd" clip-rule="evenodd" d="M224.53 65.1088C225.251 65.1088 225.835 64.4887 225.835 63.7235C225.835 62.9584 225.251 62.3382 224.53 62.3382C223.809 62.3382 223.224 62.9584 223.224 63.7235C223.224 64.4887 223.809 65.1088 224.53 65.1088Z" fill="black" fill-opacity="0.1"/>
<path fill-rule="evenodd" clip-rule="evenodd" d="M261.081 65.1088C261.802 65.1088 262.386 64.4887 262.386 63.7235C262.386 62.9584 261.802 62.3382 261.081 62.3382C260.36 62.3382 259.776 62.9584 259.776 63.7235C259.776 64.4887 260.36 65.1088 261.081 65.1088Z" fill="black" fill-opacity="0.1"/>
<path fill-rule="evenodd" clip-rule="evenodd" d="M242.805 84.5029C243.526 84.5029 244.111 83.8828 244.111 83.1177C244.111 82.3525 243.526 81.7324 242.805 81.7324C242.084 81.7324 241.5 82.3525 241.5 83.1177C241.5 83.8828 242.084 84.5029 242.805 84.5029Z" fill="black" fill-opacity="0.1"/>
<path fill-rule="evenodd" clip-rule="evenodd" d="M242.805 47.1L243.676 63.2618H241.935L242.805 47.1Z" fill="#AFB9C5"/>
<path fill-rule="evenodd" clip-rule="evenodd" d="M250.507 71.8958L242.507 64.7126L243.738 63.4068L250.507 71.8958Z" fill="#AFB9C5"/>
<path fill-rule="evenodd" clip-rule="evenodd" d="M242.805 65.5706C243.767 65.5706 244.546 64.7436 244.546 63.7235C244.546 62.7035 243.767 61.8765 242.805 61.8765C241.844 61.8765 241.065 62.7035 241.065 63.7235C241.065 64.7436 241.844 65.5706 242.805 65.5706Z" fill="#C5CFD6"/>
<g opacity="0.345889">
<path fill-rule="evenodd" clip-rule="evenodd" d="M218.348 192.272C215.348 156.693 54.3763 88.0234 24.4927 121.723C-5.3911 155.422 23.3384 218.666 85.9637 234.861C148.589 251.057 221.348 227.85 218.348 192.272Z" fill="#F2F2F2"/>
<path fill-rule="evenodd" clip-rule="evenodd" d="M118.855 215.389C121.542 185.164 265.734 126.826 292.502 155.455C319.271 184.083 312.495 244.301 256.398 258.059C200.301 271.818 116.167 245.615 118.855 215.389Z" fill="#DDE3E9"/>
</g>
<path fill-rule="evenodd" clip-rule="evenodd" d="M32.4176 96.8196C42.6311 96.8196 50.9108 92.1682 50.9108 86.4299C50.9108 80.692 42.6311 76.0402 32.4176 76.0402C22.204 76.0402 13.9243 80.692 13.9243 86.4299C13.9243 92.1682 22.204 96.8196 32.4176 96.8196Z" fill="#F2F2F2"/>
<path fill-rule="evenodd" clip-rule="evenodd" d="M53.9568 93.5872C53.9568 80.8361 44.3133 70.499 32.4176 70.499C20.5218 70.499 10.8784 80.8361 10.8784 93.5872" fill="#DDE3E9"/>
<path d="M33.5054 0H31.3298V73.8824H33.5054V0Z" fill="#DDE3E9"/>
<g opacity="0.7">
<path fill-rule="evenodd" clip-rule="evenodd" d="M66.1406 73.4206C73.775 73.4206 79.9639 69.6664 79.9639 65.0359C79.9639 60.4053 73.775 56.6511 66.1406 56.6511C58.5061 56.6511 52.3172 60.4053 52.3172 65.0359C52.3172 69.6664 58.5061 73.4206 66.1406 73.4206Z" fill="#F2F2F2"/>
<path fill-rule="evenodd" clip-rule="evenodd" d="M82.2406 70.8121C82.2406 60.5217 75.0326 52.1794 66.1406 52.1794C57.2486 52.1794 50.0406 60.5217 50.0406 70.8121" fill="#DDE3E9"/>
<path d="M67.4459 0H65.2703V62.8H67.4459V0Z" fill="#DDE3E9"/>
</g>
<path d="M254.119 108.162L262.199 99.5842C263.558 98.1412 265.763 98.1412 267.123 99.5842L288.632 122.42C289.937 123.806 290.67 125.684 290.67 127.643V278.906" stroke="#CBCBCB" stroke-width="4"/>
<path d="M301.984 278.444H278.922C278.201 278.444 277.616 279.064 277.616 279.829V280.291C277.616 281.056 278.201 281.676 278.922 281.676H301.984C302.705 281.676 303.289 281.056 303.289 280.291V279.829C303.289 279.064 302.705 278.444 301.984 278.444Z" fill="#AFB9C5"/>
<path d="M238.671 103.128C244.279 97.177 253.371 97.177 258.979 103.128C264.586 109.079 264.586 118.727 258.979 124.678L250.363 133.821L230.056 112.271L238.671 103.128Z" fill="#C5CFD6"/>
<path fill-rule="evenodd" clip-rule="evenodd" d="M238.553 124.92C244.161 130.871 249.602 134.745 250.707 133.572C251.812 132.4 248.161 126.626 242.553 120.675C236.946 114.724 231.504 110.85 230.399 112.022C229.295 113.195 232.946 118.969 238.553 124.92Z" fill="#F2F2F2"/>
<path fill-rule="evenodd" clip-rule="evenodd" d="M27.526 171.856C28.7724 171.695 30.1028 171.752 31.262 172.274C33.7269 173.384 34.4275 176.474 34.3937 178.986C34.3573 181.69 33.8163 184.643 35.7531 186.821C36.6434 187.822 37.7509 188.588 38.6251 189.608C39.5593 190.698 40.2922 191.945 40.8349 193.284C41.8314 195.743 42.3205 198.636 41.4093 201.216C40.607 203.488 38.5885 205.538 39.0246 208.121C39.4796 210.815 42.0396 212.875 43.6399 214.883C45.4514 217.154 47.1192 220.057 47.3934 223.035C47.6558 225.89 46.4848 228.777 44.6881 230.935C41.0977 235.247 35.7009 237.36 30.2593 237.347C27.9489 237.342 25.3331 237.231 23.3394 235.913C22.7231 235.506 22.398 235.049 22.0317 234.414C21.7033 233.844 21.2694 233.474 20.7672 233.071C19.6639 232.185 18.8671 230.993 18.3586 229.657C16.384 224.47 17.9622 218.054 20.7262 213.448C21.3812 212.356 21.9173 211.306 21.5992 210.006C21.2672 208.647 20.4511 207.423 19.7293 206.256C19.0161 205.102 18.2019 204.002 17.6444 202.755C17.0605 201.448 16.8961 200.08 16.9993 198.65C17.1932 195.964 18.2857 193.485 19.8327 191.326C21.3226 189.245 23.072 187.254 23.0759 184.528C23.0802 181.638 21.2599 179.068 22.0354 176.13C22.3565 174.914 23.0014 173.666 24.0408 172.937C25.0376 172.237 26.3537 172.008 27.526 171.856Z" fill="#DDE3E9"/>
<path fill-rule="evenodd" clip-rule="evenodd" d="M26.7115 176.475C26.7348 176.088 27.1686 175.855 27.5101 175.956C27.9596 176.089 27.9509 176.535 27.939 176.932C27.9026 178.153 28.0691 179.339 28.3456 180.523C28.9202 182.985 29.9822 185.254 30.8235 187.619C31.6641 189.982 32.0587 192.422 31.5656 194.922C31.1007 197.28 30.3703 199.576 29.8946 201.937C29.4753 204.017 29.029 206.212 29.6676 208.287C30.2821 210.284 31.6407 211.911 32.619 213.716C34.6441 217.453 35.5426 221.599 35.6627 225.865C35.7184 227.846 35.6683 229.846 35.2352 231.789C34.9859 232.908 34.6509 234.42 33.7475 235.192C33.3309 235.549 32.6183 235.671 32.2677 235.144C31.9385 234.649 32.2273 233.883 32.3318 233.356C32.7844 231.073 32.8755 228.74 32.7671 226.423C32.6622 224.178 32.4123 221.936 31.7464 219.792C31.1284 217.802 30.1895 216.014 29.0845 214.274C27.9585 212.5 26.788 210.722 26.3227 208.62C25.85 206.486 26.234 204.313 26.7475 202.219C27.2906 200.005 28.0019 197.853 28.7372 195.698C29.4539 193.599 29.7079 191.612 29.3123 189.414C28.5308 185.073 26.4389 180.997 26.7115 176.475Z" fill="#C5CFD6"/>
<path fill-rule="evenodd" clip-rule="evenodd" d="M60.4369 177.125C61.9794 177.622 63.5116 178.424 64.6111 179.681C66.9491 182.355 66.2316 186.396 64.941 189.348C63.5516 192.525 61.4464 195.719 62.6335 199.364C63.1787 201.039 64.0959 202.557 64.6133 204.246C65.1664 206.051 65.4048 207.93 65.3744 209.813C65.3182 213.272 64.4514 216.962 62.0974 219.51C60.0248 221.754 56.6364 223.065 55.8614 226.36C55.0525 229.798 57.0293 233.647 57.907 236.904C58.9 240.591 59.4104 244.944 58.2482 248.618C57.1346 252.139 54.3232 254.907 51.1407 256.467C44.782 259.584 37.3994 259.104 31.0234 256.085C28.3164 254.802 25.3035 253.228 23.6212 250.569C23.1013 249.747 22.9476 249.027 22.8343 248.074C22.7327 247.219 22.4083 246.541 22.02 245.787C21.1668 244.131 20.8264 242.281 20.8952 240.421C21.1627 233.196 26.2099 226.479 31.7459 222.558C33.0577 221.629 34.2096 220.683 34.4843 218.969C34.7711 217.18 34.424 215.281 34.1587 213.502C33.8967 211.744 33.4898 209.994 33.4571 208.211C33.423 206.343 33.9117 204.634 34.7449 203.001C36.3101 199.931 38.8261 197.603 41.7163 195.902C44.5001 194.264 47.5438 192.875 48.9062 189.654C50.3505 186.239 49.4954 182.194 51.8682 179.148C52.8507 177.887 54.2288 176.767 55.8114 176.478C57.3287 176.202 58.9861 176.657 60.4369 177.125Z" fill="#DDE3E9"/>
<path fill-rule="evenodd" clip-rule="evenodd" d="M57.2861 182.772C57.505 182.325 58.1272 182.29 58.4766 182.6C58.9361 183.008 58.7059 183.531 58.4962 183.995C57.8513 185.42 57.4606 186.917 57.1995 188.473C56.6564 191.709 56.7787 194.986 56.5951 198.255C56.4119 201.521 55.6691 204.63 53.8585 207.316C52.1511 209.85 50.1638 212.163 48.4424 214.694C46.9255 216.925 45.3207 219.275 45.0436 222.088C44.776 224.795 45.5618 227.477 45.8146 230.159C46.3385 235.711 45.3429 241.12 43.378 246.239C42.4654 248.616 41.4201 250.956 39.9547 253.016C39.1111 254.203 37.9732 255.807 36.5355 256.219C35.8726 256.409 34.9787 256.159 34.829 255.339C34.6883 254.57 35.4039 253.824 35.7864 253.257C37.4422 250.806 38.7 248.094 39.7172 245.289C40.7026 242.571 41.5165 239.778 41.7961 236.868C42.0555 234.168 41.8397 231.529 41.4067 228.853C40.9656 226.127 40.4742 223.37 40.9675 220.622C41.4683 217.831 42.9894 215.472 44.6232 213.278C46.3511 210.957 48.2449 208.805 50.1681 206.662C52.0423 204.574 53.3198 202.363 53.9421 199.541C55.1709 193.964 54.7362 187.974 57.2861 182.772Z" fill="#C5CFD6"/>
<path fill-rule="evenodd" clip-rule="evenodd" d="M12.7522 197.635C15.3171 197.635 17.5719 199.078 19.1257 201.125C20.9445 203.522 21.3119 206.449 22.0504 209.305C22.4179 210.726 23.05 212.137 24.1577 213.104C25.1652 213.982 26.4442 214.157 27.6502 214.587C30.0603 215.444 32.0064 217.51 32.775 220.03C33.7126 223.105 32.7195 226.206 32.8905 229.323C33.0475 232.184 35.7063 233.969 37.8455 235.341C39.9549 236.694 41.8552 237.96 42.4906 240.596C43.1642 243.391 43.3903 246.51 42.4571 249.271C40.9035 253.869 36.3568 255.893 31.9635 256.206C27.9764 256.491 22.9631 256.044 19.9688 252.973C18.1771 251.135 17.5282 248.565 17.6087 246.007C17.6587 244.417 17.9556 242.842 18.3394 241.305C18.6114 240.216 18.9789 239.131 19.0836 238.006C19.3619 235.011 16.754 234.437 14.5341 233.614C11.7133 232.57 9.73845 230.596 8.36521 227.846C7.08635 225.286 6.54978 222.413 7.3164 219.594C7.70794 218.155 8.41812 216.849 9.38125 215.739C9.80525 215.25 10.4028 214.842 10.7855 214.329C11.1426 213.849 11.0649 213.227 10.9418 212.666C10.3726 210.071 8.59931 207.923 7.9651 205.332C7.39255 202.994 7.731 200.085 9.7452 198.576C10.6154 197.925 11.6886 197.643 12.7522 197.635Z" fill="#C5CFD6"/>
<path fill-rule="evenodd" clip-rule="evenodd" d="M16.2472 204.396C18.9656 207.469 19.7045 211.638 19.9214 215.679C20.0429 217.945 19.9164 220.335 20.5438 222.533C21.0806 224.414 22.3389 225.852 23.6361 227.212C26.2471 229.947 29.159 232.729 29.9227 236.689C30.3708 239.012 30.0684 241.412 30.6876 243.71C31.2506 245.799 32.2419 247.851 33.4476 249.615C34.4184 251.036 35.6832 252.124 36.7444 253.447C37.0682 253.852 37.5319 254.447 37.3983 255.017C37.242 255.686 36.4398 255.897 35.8707 255.792C34.5439 255.548 33.427 254.203 32.5594 253.225C31.2907 251.796 30.2127 250.259 29.3365 248.534C28.3638 246.619 27.5806 244.587 27.2459 242.438C26.8986 240.21 27.0715 237.886 26.2785 235.747C24.944 232.148 21.7074 230.023 19.3673 227.218C16.4517 223.722 16.8866 219.371 17.1852 215.071C17.3492 212.708 17.5123 210.039 16.3871 207.881C15.9575 207.058 14.9999 206.29 14.8152 205.354C14.646 204.496 15.5693 203.629 16.2472 204.396Z" fill="#AFB9C5"/>
<path fill-rule="evenodd" clip-rule="evenodd" d="M19.1463 254.894C19.1463 272.468 21.8488 281.676 36.1164 281.676C50.384 281.676 53.0867 272.468 53.0867 254.894H19.1463Z" fill="#89C5CC"/>
<path d="M93.5543 229.497H78.7597C78.279 229.497 77.8894 229.911 77.8894 230.421V232.729C77.8894 233.239 78.279 233.653 78.7597 233.653H93.5543C94.0349 233.653 94.4245 233.239 94.4245 232.729V230.421C94.4245 229.911 94.0349 229.497 93.5543 229.497Z" fill="#AFB9C5"/>
<path fill-rule="evenodd" clip-rule="evenodd" d="M85.381 195.788H86.1569H86.592H87.3679C87.5933 202.908 88.6402 209.68 90.5082 216.106H93.3366C97.0614 216.106 100.081 219.311 100.081 223.263C100.081 227.216 97.0614 230.421 93.3366 230.421H78.9771C75.2524 230.421 72.2325 227.216 72.2325 223.263C72.2325 219.311 75.2524 216.106 78.9771 216.106H82.2407C85.0429 206.468 85.381 195.788 85.381 195.788Z" fill="#DDE3E9"/>
<path fill-rule="evenodd" clip-rule="evenodd" d="M70.7627 163.778C70.7627 163.778 78.2422 163.003 85.7217 163.003C93.2013 163.003 100.681 163.778 100.681 163.778L102.692 200.467C102.692 200.467 94.2069 201.329 85.7217 201.329C77.2366 201.329 68.7515 200.467 68.7515 200.467L70.7627 163.778Z" fill="#C5CFD6"/>
<path fill-rule="evenodd" clip-rule="evenodd" d="M58.7433 281.676V243.812V233.653H67.8811H103.997H113.135V243.812V281.676H103.997V243.812H67.8811V281.676H58.7433Z" fill="#F2F2F2"/>
<path fill-rule="evenodd" clip-rule="evenodd" d="M240.796 151.555C244.639 161.247 251.173 167.981 254.633 178.059C256.686 184.035 257.541 190.533 257.593 197.188C257.621 200.803 257.561 204.42 257.546 208.035C257.53 211.56 257.44 215.063 257.158 218.566C256.874 222.087 256.557 225.566 256.417 229.109C256.308 231.869 256.259 235.08 255.377 237.598C254.676 239.601 252.893 239.894 252.421 237.465C252.158 236.116 252.191 234.608 252.22 233.22C252.257 231.44 252.355 229.663 252.405 227.883C252.604 220.74 252.345 213.597 252.481 206.451C252.613 199.47 253.459 192.496 252.523 185.562C251.75 179.835 249.788 174.917 247.532 170.203C245.362 165.668 242.999 161.242 241.533 156.083C241.112 154.602 240.786 153.066 240.63 151.473C240.698 151.439 240.753 151.466 240.796 151.555Z" fill="#C1DEE2"/>
<path fill-rule="evenodd" clip-rule="evenodd" d="M239.748 170.676C240.509 171.259 240.934 172.113 241.449 172.954C242.088 174.001 242.841 174.946 243.48 175.993C244.814 178.177 245.986 180.494 247.201 182.766C249.509 187.078 251.262 191.674 252.129 196.663C253.029 201.834 253.271 207.17 253.649 212.417C254.049 217.979 254.452 223.581 254.505 229.164C254.529 231.666 254.656 234.321 254.373 236.804C254.197 238.35 253.539 239.668 252.057 239.656C248.908 239.629 247.43 235.928 246.812 232.893C245.903 228.423 245.722 223.676 245.866 219.105C246.039 213.593 246.941 208.164 247.331 202.674C247.744 196.862 247.511 191.152 245.628 185.68C244.677 182.914 243.573 180.215 242.581 177.468C242.159 176.298 241.813 175.097 241.243 174.007C240.609 172.796 239.821 171.696 239.324 170.391C239.465 170.486 239.607 170.581 239.748 170.676Z" fill="#89C5CC"/>
<path fill-rule="evenodd" clip-rule="evenodd" d="M276.021 159.086C276.118 159.006 276.214 158.927 276.311 158.847C276.033 160.091 275.531 161.1 275.147 162.237C274.801 163.259 274.627 164.415 274.394 165.532C273.848 168.155 273.217 170.719 272.702 173.365C271.681 178.6 271.874 184.24 272.544 190.048C273.176 195.534 274.175 201.012 274.652 206.497C275.047 211.046 275.217 215.737 274.84 220.078C274.584 223.025 273.745 226.545 271.458 226.247C270.382 226.107 269.82 224.732 269.594 223.18C269.231 220.688 269.155 218.067 269.013 215.588C268.697 210.055 268.634 204.539 268.572 199.063C268.512 193.897 268.35 188.628 268.675 183.592C268.989 178.732 269.97 174.353 271.373 170.313C272.112 168.184 272.817 166.005 273.647 163.976C274.045 163.003 274.532 162.144 274.93 161.171C275.251 160.389 275.505 159.586 276.021 159.086Z" fill="#C1DEE2"/>
<path fill-rule="evenodd" clip-rule="evenodd" d="M240.721 186.692C241.137 185.95 242.054 188.397 242.193 188.705C242.134 188.551 242.075 188.399 242.015 188.246C242.842 189.704 243.598 191.223 244.068 192.895C244.533 194.55 244.932 196.239 245.369 197.906C246.188 201.034 247.245 204.074 247.987 207.23C248.71 210.305 248.892 213.329 248.717 216.51C248.535 219.816 248.424 223.174 248.636 226.478C248.737 228.056 249.221 229.527 249.552 231.046C249.883 232.567 250.145 234.108 250.537 235.61C250.627 235.415 250.638 236.069 250.638 236.118C250.635 236.494 250.586 236.808 250.472 237.164C250.18 238.079 249.633 238.857 248.801 239.109C247.297 239.565 245.9 238.113 245.415 236.58C244.72 234.38 244.336 231.949 244.004 229.637C243.701 227.517 243.628 225.385 243.719 223.236C243.897 218.997 244.62 214.814 244.815 210.577C245.028 205.964 244.167 201.629 243.446 197.139C243.098 194.975 242.766 192.832 242.09 190.771C241.817 189.936 241.46 189.199 241.086 188.428C240.873 187.99 240.442 187.208 240.721 186.692Z" fill="#C1DEE2"/>
<path fill-rule="evenodd" clip-rule="evenodd" d="M252.923 179.487C252.751 184.771 252.453 190.016 251.789 195.245C251.112 200.581 250.333 205.899 249.682 211.24C249.047 216.439 248.382 221.725 248.47 226.997C248.535 230.879 247.929 237.448 251.993 239.365C256.109 241.305 256.991 233.017 257.262 230.282C257.779 225.033 257.612 219.729 257.36 214.452C257.102 209.036 256.672 203.647 256.138 198.251C255.545 192.257 255.08 186.236 254.706 180.225C254.522 177.252 254.476 174.283 254.527 171.309C254.575 168.503 254.475 165.667 253.534 163.003C253.485 163.041 253.436 163.079 253.387 163.117" fill="#69A1AC"/>
<path fill-rule="evenodd" clip-rule="evenodd" d="M274.171 196.229C273.431 197.373 272.685 198.507 271.986 199.719C270.735 201.888 269.604 204.299 269.264 207.4C268.552 213.889 269.123 220.899 269.261 227.587C269.289 228.953 269.126 230.279 269.634 231.58C270.094 232.759 270.955 233.658 271.775 233.653C273.531 233.642 273.263 229.079 273.266 227.071C273.271 223.551 272.899 219.995 272.931 216.478C272.963 212.994 273.163 209.5 273.639 206.191C274.121 202.842 274.827 199.625 275.758 196.624C275.887 196.208 276.815 192.989 275.938 193.544" fill="#89C5CC"/>
<path fill-rule="evenodd" clip-rule="evenodd" d="M266.417 161.618C265.262 161.618 265.269 167.725 265.235 168.509C265.109 171.34 265.139 174.172 265.06 177.003C264.886 183.183 264.673 189.416 263.798 195.523C263.327 198.811 262.781 202.085 262.194 205.348C261.605 208.62 260.814 211.889 260.427 215.203C260.055 218.388 260.265 221.636 260.316 224.838C260.367 228.059 260.459 231.286 260.857 234.479C260.955 235.266 261.07 236.052 261.193 236.835C261.295 237.488 261.236 238.297 261.409 238.918C261.687 239.911 262.88 240.236 263.682 240.081C265.855 239.66 267.242 236.765 267.985 234.65C268.932 231.949 269.435 229.02 269.931 226.174C270.494 222.95 270.823 219.676 270.977 216.394C271.292 209.722 270.889 203.043 270.438 196.393C270.188 192.695 269.898 189.013 269.456 185.337C269.015 181.677 268.449 178.033 268.081 174.363C267.813 171.696 267.549 169.024 267.376 166.347C267.335 165.708 267.3 161.618 266.417 161.618Z" fill="#69A1AC"/>
<path fill-rule="evenodd" clip-rule="evenodd" d="M264.972 206.011C264.783 199.599 262.355 171.434 261.802 163.68C261.664 161.74 260.334 153.659 260.161 151.459C259.693 152.081 259.733 161.76 259.738 163.985C259.744 166.185 259.486 168.348 259.354 170.537C259.219 172.77 256.109 201.607 255.705 203.752C254.902 208.021 254.365 212.401 253.95 216.765C253.546 221.019 252.918 225.506 253.459 229.782C253.583 230.767 253.779 231.736 254.1 232.64C254.445 233.617 254.682 234.521 254.96 235.543C255.406 237.19 256.214 238.635 257.456 239.315C260.001 240.709 261.368 237.553 262.061 234.806C263.167 230.418 263.877 225.959 264.21 221.351C264.578 216.253 265.122 211.144 264.972 206.011Z" fill="#89C5CC"/>
<path d="M276.746 224.879H238.889C238.409 224.879 238.019 225.293 238.019 225.803V265.977C238.019 266.487 238.409 266.9 238.889 266.9H276.746C277.227 266.9 277.616 266.487 277.616 265.977V225.803C277.616 225.293 277.227 224.879 276.746 224.879Z" fill="white"/>
<path d="M237.149 229.497H234.538C234.057 229.497 233.668 229.911 233.668 230.421V280.753C233.668 281.263 234.057 281.677 234.538 281.677H237.149C237.629 281.677 238.019 281.263 238.019 280.753V230.421C238.019 229.911 237.629 229.497 237.149 229.497Z" fill="#C5CFD6"/>
<path d="M258.906 229.497H256.295C255.814 229.497 255.424 229.911 255.424 230.421V280.753C255.424 281.263 255.814 281.677 256.295 281.677H258.906C259.386 281.677 259.776 281.263 259.776 280.753V230.421C259.776 229.911 259.386 229.497 258.906 229.497Z" fill="#C5CFD6"/>
<path d="M281.097 229.497H278.487C278.006 229.497 277.616 229.911 277.616 230.421V280.753C277.616 281.263 278.006 281.677 278.487 281.677H281.097C281.578 281.677 281.968 281.263 281.968 280.753V230.421C281.968 229.911 281.578 229.497 281.097 229.497Z" fill="#C5CFD6"/>
</g>
</svg>
