<svg width="360" height="326" viewBox="0 0 360 326" fill="none" xmlns="http://www.w3.org/2000/svg">
<g opacity="0.5">
<path fill-rule="evenodd" clip-rule="evenodd" d="M279 95.5C293.635 95.5 305.5 83.6355 305.5 69C305.5 54.3645 293.635 42.5 279 42.5C264.365 42.5 252.5 54.3645 252.5 69C252.5 83.6355 264.365 95.5 279 95.5Z" fill="#F2F2F2"/>
<path fill-rule="evenodd" clip-rule="evenodd" d="M279 49.5C279.829 49.5 280.5 48.8284 280.5 48C280.5 47.1715 279.829 46.5 279 46.5C278.172 46.5 277.5 47.1715 277.5 48C277.5 48.8284 278.172 49.5 279 49.5Z" fill="black" fill-opacity="0.1"/>
<path fill-rule="evenodd" clip-rule="evenodd" d="M258 70.5C258.829 70.5 259.5 69.8285 259.5 69C259.5 68.1715 258.829 67.5 258 67.5C257.172 67.5 256.5 68.1715 256.5 69C256.5 69.8285 257.172 70.5 258 70.5Z" fill="black" fill-opacity="0.1"/>
<path fill-rule="evenodd" clip-rule="evenodd" d="M300 70.5C300.829 70.5 301.5 69.8285 301.5 69C301.5 68.1715 300.829 67.5 300 67.5C299.172 67.5 298.5 68.1715 298.5 69C298.5 69.8285 299.172 70.5 300 70.5Z" fill="black" fill-opacity="0.1"/>
<path fill-rule="evenodd" clip-rule="evenodd" d="M279 91.5C279.829 91.5 280.5 90.8285 280.5 90C280.5 89.1715 279.829 88.5 279 88.5C278.172 88.5 277.5 89.1715 277.5 90C277.5 90.8285 278.172 91.5 279 91.5Z" fill="black" fill-opacity="0.1"/>
<path fill-rule="evenodd" clip-rule="evenodd" d="M279 51L280 68.5H278L279 51Z" fill="#AFB9C5"/>
<path fill-rule="evenodd" clip-rule="evenodd" d="M287.849 77.849L278.657 70.071L280.071 68.657L287.849 77.849Z" fill="#AFB9C5"/>
<path fill-rule="evenodd" clip-rule="evenodd" d="M279 71C280.105 71 281 70.1045 281 69C281 67.8955 280.105 67 279 67C277.895 67 277 67.8955 277 69C277 70.1045 277.895 71 279 71Z" fill="#C5CFD6"/>
<g opacity="0.345889">
<path fill-rule="evenodd" clip-rule="evenodd" d="M250.897 208.193C247.45 169.668 62.4821 95.312 28.1438 131.801C-6.19473 168.291 26.8175 236.773 98.7781 254.309C170.739 271.845 254.344 246.717 250.897 208.193Z" fill="#F2F2F2"/>
<path fill-rule="evenodd" clip-rule="evenodd" d="M136.572 233.224C139.66 200.496 305.346 137.328 336.105 168.327C366.864 199.326 359.079 264.53 294.619 279.427C230.16 294.325 133.484 265.952 136.572 233.224Z" fill="#DDE3E9"/>
</g>
<path fill-rule="evenodd" clip-rule="evenodd" d="M37.25 104.837C48.986 104.837 58.5 99.8 58.5 93.5865C58.5 87.3735 48.986 82.3365 37.25 82.3365C25.514 82.3365 16 87.3735 16 93.5865C16 99.8 25.514 104.837 37.25 104.837Z" fill="#F2F2F2"/>
<path fill-rule="evenodd" clip-rule="evenodd" d="M62 101.337C62 87.5295 50.919 76.3365 37.25 76.3365C23.5809 76.3365 12.5 87.5295 12.5 101.337" fill="#DDE3E9"/>
<path d="M38.5 0H36V80H38.5V0Z" fill="#DDE3E9"/>
<g opacity="0.7">
<path fill-rule="evenodd" clip-rule="evenodd" d="M76 79.5C84.7725 79.5 91.884 75.435 91.884 70.421C91.884 65.407 84.7725 61.342 76 61.342C67.2275 61.342 60.116 65.407 60.116 70.421C60.116 75.435 67.2275 79.5 76 79.5Z" fill="#F2F2F2"/>
<path fill-rule="evenodd" clip-rule="evenodd" d="M94.5 76.6755C94.5 65.533 86.2175 56.5 76 56.5C65.7825 56.5 57.5 65.533 57.5 76.6755" fill="#DDE3E9"/>
<path d="M77.5 0H75V68H77.5V0Z" fill="#DDE3E9"/>
</g>
<path d="M292 117.118L301.284 107.83C302.846 106.268 305.38 106.268 306.942 107.83L331.658 132.557C333.158 134.057 334 136.091 334 138.212V302" stroke="#CBCBCB" stroke-width="4"/>
<path d="M347 301.5H320.5C319.672 301.5 319 302.172 319 303V303.5C319 304.328 319.672 305 320.5 305H347C347.828 305 348.5 304.328 348.5 303.5V303C348.5 302.172 347.828 301.5 347 301.5Z" fill="#AFB9C5"/>
<path d="M274.249 111.668C280.693 105.224 291.14 105.224 297.584 111.668C304.027 118.111 304.027 128.558 297.584 135.002L287.684 144.902L264.35 121.567L274.249 111.668Z" fill="#C5CFD6"/>
<path fill-rule="evenodd" clip-rule="evenodd" d="M274.114 135.264C280.558 141.707 286.81 145.902 288.08 144.633C289.349 143.364 285.154 137.111 278.71 130.668C272.267 124.224 266.014 120.029 264.745 121.298C263.476 122.568 267.671 128.82 274.114 135.264Z" fill="#F2F2F2"/>
<path fill-rule="evenodd" clip-rule="evenodd" d="M31.6291 186.087C33.0614 185.912 34.5901 185.974 35.9221 186.539C38.7544 187.741 39.5595 191.087 39.5206 193.807C39.4788 196.734 38.8572 199.932 41.0827 202.29C42.1057 203.374 43.3783 204.204 44.3828 205.309C45.4562 206.489 46.2984 207.839 46.922 209.289C48.0671 211.952 48.629 215.084 47.582 217.877C46.6601 220.337 44.3407 222.557 44.8418 225.354C45.3646 228.272 48.3062 230.502 50.1451 232.676C52.2266 235.135 54.1431 238.278 54.4581 241.503C54.7596 244.594 53.4141 247.72 51.3496 250.057C47.224 254.726 41.0227 257.014 34.7699 257C32.1151 256.994 29.1094 256.874 26.8184 255.448C26.1103 255.007 25.7368 254.512 25.3159 253.824C24.9385 253.207 24.4399 252.806 23.8629 252.37C22.5951 251.411 21.6795 250.12 21.0952 248.674C18.8262 243.057 20.6397 236.109 23.8157 231.122C24.5683 229.94 25.1844 228.803 24.8188 227.395C24.4373 225.924 23.4996 224.598 22.6703 223.335C21.8507 222.085 20.9151 220.894 20.2745 219.544C19.6036 218.129 19.4147 216.647 19.5332 215.099C19.756 212.191 21.0115 209.507 22.789 207.168C24.501 204.915 26.5112 202.759 26.5157 199.808C26.5206 196.679 24.429 193.896 25.3201 190.715C25.689 189.398 26.4301 188.046 27.6244 187.257C28.7698 186.499 30.2821 186.251 31.6291 186.087Z" fill="#DDE3E9"/>
<path fill-rule="evenodd" clip-rule="evenodd" d="M30.6932 191.088C30.7201 190.668 31.2185 190.416 31.6109 190.526C32.1274 190.67 32.1174 191.153 32.1038 191.583C32.062 192.904 32.2533 194.189 32.571 195.471C33.2312 198.137 34.4515 200.593 35.4182 203.154C36.3841 205.713 36.8375 208.355 36.2709 211.062C35.7367 213.615 34.8975 216.102 34.3509 218.658C33.869 220.911 33.3563 223.287 34.0901 225.534C34.7962 227.697 36.3572 229.458 37.4814 231.413C39.8084 235.459 40.8408 239.948 40.9788 244.568C41.0428 246.713 40.9852 248.878 40.4876 250.982C40.2011 252.193 39.8162 253.83 38.7781 254.667C38.2994 255.053 37.4806 255.186 37.0777 254.615C36.6995 254.079 37.0313 253.25 37.1514 252.679C37.6715 250.207 37.7761 247.681 37.6516 245.171C37.5311 242.74 37.2438 240.313 36.4787 237.991C35.7686 235.837 34.6897 233.901 33.42 232.016C32.1262 230.096 30.7811 228.171 30.2465 225.895C29.7034 223.583 30.1446 221.231 30.7347 218.964C31.3587 216.566 32.176 214.236 33.021 211.903C33.8444 209.629 34.1363 207.478 33.6817 205.098C32.7837 200.397 30.38 195.984 30.6932 191.088Z" fill="#C5CFD6"/>
<path fill-rule="evenodd" clip-rule="evenodd" d="M69.446 191.791C71.2185 192.33 72.979 193.198 74.2425 194.559C76.929 197.455 76.1045 201.831 74.6215 205.027C73.025 208.467 70.606 211.925 71.97 215.872C72.5965 217.686 73.6505 219.33 74.245 221.158C74.8805 223.112 75.1545 225.147 75.1195 227.186C75.055 230.931 74.059 234.928 71.354 237.687C68.9725 240.116 65.079 241.535 64.1885 245.103C63.259 248.826 65.5305 252.994 66.539 256.521C67.68 260.512 68.2665 265.227 66.931 269.205C65.6515 273.017 62.421 276.014 58.764 277.703C51.4575 281.078 42.9743 280.559 35.6479 277.289C32.5374 275.901 29.0753 274.196 27.1422 271.317C26.5448 270.427 26.3682 269.647 26.238 268.615C26.1213 267.689 25.7486 266.956 25.3024 266.139C24.322 264.346 23.9309 262.342 24.0099 260.328C24.3172 252.506 30.1168 245.232 36.4781 240.986C37.9854 239.98 39.309 238.956 39.6247 237.1C39.9543 235.163 39.5554 233.107 39.2506 231.181C38.9495 229.277 38.4819 227.382 38.4444 225.451C38.4052 223.429 38.9667 221.579 39.9241 219.81C41.7226 216.486 44.6137 213.965 47.9348 212.124C51.1335 210.35 54.631 208.846 56.1965 205.358C57.856 201.66 56.8735 197.281 59.6 193.982C60.729 192.617 62.3125 191.404 64.131 191.091C65.8745 190.792 67.779 191.285 69.446 191.791Z" fill="#DDE3E9"/>
<path fill-rule="evenodd" clip-rule="evenodd" d="M65.8255 197.906C66.077 197.422 66.792 197.385 67.1935 197.72C67.7215 198.162 67.457 198.728 67.216 199.23C66.475 200.774 66.026 202.395 65.726 204.08C65.102 207.583 65.2425 211.131 65.0315 214.671C64.821 218.207 63.9675 221.574 61.887 224.483C59.925 227.226 57.6415 229.731 55.6635 232.472C53.9205 234.887 52.0765 237.432 51.758 240.477C51.4505 243.409 52.3535 246.313 52.644 249.217C53.246 255.229 52.102 261.086 49.8442 266.629C48.7956 269.203 47.5944 271.736 45.9106 273.967C44.9412 275.252 43.6337 276.989 41.9817 277.435C41.22 277.641 40.1928 277.37 40.0208 276.482C39.8591 275.649 40.6814 274.841 41.1209 274.228C43.0235 271.573 44.4688 268.637 45.6377 265.599C46.77 262.657 47.7052 259.633 48.0265 256.482C48.3246 253.558 48.0766 250.701 47.5791 247.803C47.0722 244.851 46.5075 241.866 47.0743 238.891C47.6498 235.868 49.3977 233.314 51.275 230.938C53.2605 228.425 55.4365 226.095 57.6465 223.775C59.8 221.514 61.268 219.119 61.983 216.063C63.395 210.025 62.8955 203.539 65.8255 197.906Z" fill="#C5CFD6"/>
<path fill-rule="evenodd" clip-rule="evenodd" d="M14.653 214C17.6001 214 20.1911 215.562 21.9765 217.779C24.0665 220.374 24.4886 223.543 25.3372 226.636C25.7595 228.175 26.4858 229.703 27.7587 230.749C28.9163 231.7 30.386 231.89 31.7717 232.355C34.5411 233.284 36.7773 235.521 37.6605 238.25C38.7379 241.579 37.5967 244.937 37.7932 248.311C37.9736 251.41 41.0288 253.343 43.4869 254.828C45.9107 256.293 48.0943 257.664 48.8243 260.518C49.5984 263.544 49.8582 266.922 48.7859 269.912C47.0007 274.89 41.7762 277.082 36.728 277.421C32.1466 277.73 26.3859 277.246 22.9453 273.92C20.8865 271.93 20.1409 269.147 20.2334 266.378C20.2909 264.656 20.632 262.95 21.073 261.286C21.3855 260.107 21.8078 258.932 21.9281 257.714C22.2479 254.471 19.2513 253.849 16.7005 252.958C13.4591 251.827 11.1899 249.69 9.61199 246.713C8.14249 243.941 7.52594 240.829 8.40684 237.777C8.85674 236.219 9.67279 234.805 10.7795 233.603C11.2667 233.073 11.9533 232.632 12.393 232.076C12.8034 231.556 12.7141 230.883 12.5726 230.275C11.9186 227.466 9.88099 225.139 9.15224 222.334C8.49434 219.803 8.88324 216.652 11.1977 215.019C12.1976 214.314 13.4308 214.008 14.653 214Z" fill="#C5CFD6"/>
<path fill-rule="evenodd" clip-rule="evenodd" d="M18.669 221.32C21.7926 224.648 22.6417 229.162 22.8909 233.538C23.0304 235.991 22.8852 238.579 23.606 240.959C24.2228 242.996 25.6688 244.553 27.1593 246.025C30.1595 248.987 33.5055 251.999 34.3831 256.287C34.898 258.803 34.5504 261.402 35.2619 263.89C35.9089 266.152 37.0479 268.374 38.4334 270.284C39.5489 271.822 41.0022 273 42.2216 274.433C42.5937 274.871 43.1266 275.516 42.973 276.134C42.7934 276.857 41.8717 277.086 41.2177 276.972C39.6931 276.707 38.4097 275.251 37.4128 274.193C35.955 272.645 34.7163 270.981 33.7095 269.113C32.5917 267.04 31.6918 264.839 31.3072 262.513C30.9082 260.099 31.1068 257.584 30.1956 255.267C28.6622 251.37 24.9431 249.07 22.2542 246.032C18.904 242.247 19.4036 237.536 19.7468 232.879C19.9353 230.32 20.1227 227.431 18.8297 225.094C18.3361 224.203 17.2357 223.371 17.0235 222.357C16.8291 221.429 17.89 220.49 18.669 221.32Z" fill="#AFB9C5"/>
<path fill-rule="evenodd" clip-rule="evenodd" d="M22.0002 276C22.0002 295.029 25.1056 305 41.5001 305C57.8945 305 61 295.029 61 276H22.0002Z" fill="#89C5CC"/>
<path d="M107.5 248.5H90.5001C89.9478 248.5 89.5001 248.948 89.5001 249.5V252C89.5001 252.552 89.9478 253 90.5001 253H107.5C108.052 253 108.5 252.552 108.5 252V249.5C108.5 248.948 108.052 248.5 107.5 248.5Z" fill="#AFB9C5"/>
<path fill-rule="evenodd" clip-rule="evenodd" d="M98.1085 212H99H99.5H100.392C100.651 219.709 101.854 227.042 104 234H107.25C111.53 234 115 237.47 115 241.75C115 246.03 111.53 249.5 107.25 249.5H90.75C86.47 249.5 83 246.03 83 241.75C83 237.47 86.47 234 90.75 234H94.5C97.72 223.564 98.1085 212 98.1085 212Z" fill="#DDE3E9"/>
<path fill-rule="evenodd" clip-rule="evenodd" d="M81.311 177.339C81.311 177.339 89.9055 176.5 98.5 176.5C107.094 176.5 115.689 177.339 115.689 177.339L118 217.066C118 217.066 108.25 218 98.5 218C88.75 218 79 217.066 79 217.066L81.311 177.339Z" fill="#C5CFD6"/>
<path fill-rule="evenodd" clip-rule="evenodd" d="M67.5 305V264V253H78H119.5H130V264V305H119.5V264H78V305H67.5Z" fill="#F2F2F2"/>
<path fill-rule="evenodd" clip-rule="evenodd" d="M276.691 164.104C281.107 174.599 288.615 181.891 292.591 192.803C294.949 199.274 295.932 206.31 295.992 213.516C296.024 217.43 295.956 221.347 295.938 225.261C295.92 229.078 295.816 232.871 295.492 236.664C295.166 240.476 294.802 244.244 294.641 248.08C294.516 251.069 294.459 254.546 293.446 257.272C292.64 259.441 290.592 259.758 290.049 257.128C289.747 255.666 289.785 254.034 289.818 252.532C289.861 250.604 289.973 248.68 290.03 246.752C290.26 239.018 289.962 231.283 290.118 223.546C290.27 215.987 291.241 208.436 290.166 200.927C289.278 194.726 287.023 189.401 284.431 184.296C281.937 179.385 279.223 174.594 277.538 169.007C277.054 167.403 276.68 165.741 276.5 164.015C276.579 163.979 276.642 164.008 276.691 164.104Z" fill="#C1DEE2"/>
<path fill-rule="evenodd" clip-rule="evenodd" d="M275.487 184.809C276.362 185.44 276.85 186.364 277.441 187.275C278.176 188.408 279.041 189.432 279.776 190.566C281.308 192.93 282.654 195.44 284.051 197.9C286.703 202.569 288.717 207.545 289.714 212.947C290.748 218.546 291.026 224.324 291.46 230.006C291.92 236.028 292.383 242.094 292.444 248.139C292.471 250.848 292.618 253.723 292.292 256.413C292.09 258.087 291.334 259.513 289.631 259.5C286.013 259.471 284.314 255.464 283.604 252.177C282.56 247.337 282.351 242.196 282.517 237.247C282.716 231.279 283.752 225.401 284.2 219.456C284.675 213.162 284.407 206.98 282.243 201.055C281.15 198.06 279.882 195.137 278.742 192.163C278.257 190.896 277.86 189.595 277.205 188.415C276.476 187.104 275.571 185.913 275 184.5C275.162 184.603 275.325 184.706 275.487 184.809Z" fill="#89C5CC"/>
<path fill-rule="evenodd" clip-rule="evenodd" d="M317.167 172.259C317.278 172.173 317.389 172.086 317.5 172C317.181 173.347 316.604 174.44 316.162 175.671C315.766 176.777 315.565 178.029 315.298 179.238C314.67 182.079 313.945 184.856 313.353 187.72C312.18 193.389 312.402 199.495 313.171 205.784C313.898 211.725 315.046 217.656 315.594 223.596C316.048 228.521 316.243 233.601 315.81 238.301C315.516 241.492 314.552 245.303 311.924 244.981C310.687 244.83 310.042 243.34 309.782 241.66C309.365 238.961 309.277 236.123 309.115 233.439C308.751 227.448 308.679 221.476 308.607 215.546C308.539 209.952 308.353 204.247 308.726 198.794C309.087 193.532 310.214 188.79 311.827 184.415C312.676 182.11 313.485 179.751 314.439 177.554C314.897 176.501 315.456 175.569 315.914 174.516C316.282 173.669 316.574 172.801 317.167 172.259Z" fill="#C1DEE2"/>
<path fill-rule="evenodd" clip-rule="evenodd" d="M276.605 202.151C277.083 201.347 278.136 203.996 278.297 204.33C278.229 204.164 278.161 203.998 278.092 203.833C279.042 205.412 279.911 207.057 280.451 208.867C280.985 210.66 281.444 212.488 281.946 214.293C282.887 217.681 284.101 220.972 284.954 224.389C285.785 227.719 285.994 230.993 285.793 234.437C285.584 238.017 285.456 241.653 285.7 245.231C285.816 246.94 286.372 248.532 286.752 250.177C287.133 251.824 287.433 253.493 287.884 255.12C287.987 254.908 288 255.616 288 255.669C287.997 256.076 287.941 256.416 287.81 256.802C287.474 257.793 286.846 258.634 285.889 258.908C284.161 259.401 282.556 257.829 281.999 256.169C281.2 253.787 280.759 251.155 280.378 248.652C280.029 246.356 279.946 244.047 280.05 241.72C280.254 237.13 281.085 232.601 281.309 228.013C281.554 223.018 280.564 218.324 279.736 213.462C279.337 211.119 278.955 208.799 278.178 206.567C277.864 205.663 277.454 204.865 277.024 204.03C276.779 203.556 276.285 202.709 276.605 202.151Z" fill="#C1DEE2"/>
<path fill-rule="evenodd" clip-rule="evenodd" d="M290.626 194.348C290.428 200.071 290.086 205.75 289.323 211.412C288.545 217.19 287.65 222.949 286.901 228.732C286.172 234.361 285.408 240.084 285.509 245.792C285.584 249.996 284.887 257.11 289.557 259.185C294.286 261.286 295.301 252.312 295.611 249.35C296.206 243.667 296.014 237.924 295.725 232.21C295.428 226.345 294.933 220.51 294.32 214.667C293.639 208.177 293.104 201.657 292.675 195.148C292.463 191.928 292.41 188.715 292.469 185.494C292.524 182.456 292.409 179.385 291.328 176.5C291.272 176.541 291.216 176.582 291.159 176.623" fill="#69A1AC"/>
<path fill-rule="evenodd" clip-rule="evenodd" d="M315.042 212.477C314.191 213.716 313.334 214.943 312.531 216.256C311.093 218.604 309.794 221.216 309.403 224.573C308.585 231.6 309.241 239.189 309.399 246.431C309.432 247.911 309.245 249.346 309.828 250.755C310.357 252.032 311.346 253.005 312.288 253C314.306 252.988 313.998 248.047 314.001 245.873C314.007 242.061 313.58 238.211 313.617 234.403C313.653 230.63 313.883 226.847 314.43 223.264C314.984 219.638 315.795 216.154 316.865 212.905C317.013 212.454 318.079 208.968 317.072 209.569" fill="#89C5CC"/>
<path fill-rule="evenodd" clip-rule="evenodd" d="M306.131 175C304.805 175 304.813 181.613 304.773 182.462C304.629 185.527 304.663 188.594 304.572 191.66C304.372 198.351 304.127 205.1 303.122 211.713C302.581 215.273 301.954 218.818 301.279 222.351C300.602 225.894 299.694 229.434 299.249 233.022C298.821 236.472 299.063 239.989 299.121 243.455C299.18 246.943 299.285 250.437 299.742 253.894C299.855 254.747 299.987 255.597 300.129 256.445C300.246 257.152 300.178 258.029 300.377 258.701C300.697 259.776 302.067 260.128 302.989 259.96C305.485 259.504 307.08 256.37 307.933 254.08C309.022 251.156 309.6 247.983 310.17 244.902C310.816 241.41 311.194 237.866 311.372 234.311C311.733 227.087 311.27 219.856 310.752 212.655C310.464 208.65 310.132 204.664 309.623 200.684C309.116 196.721 308.466 192.775 308.043 188.801C307.736 185.913 307.433 183.02 307.234 180.12C307.186 179.429 307.146 175 306.131 175Z" fill="#69A1AC"/>
<path fill-rule="evenodd" clip-rule="evenodd" d="M304.471 223.07C304.254 216.127 301.464 185.63 300.829 177.234C300.67 175.132 299.141 166.382 298.943 164C298.405 164.674 298.451 175.155 298.457 177.563C298.463 179.946 298.168 182.288 298.016 184.658C297.861 187.076 294.286 218.301 293.823 220.624C292.9 225.246 292.282 229.988 291.806 234.714C291.342 239.32 290.62 244.179 291.241 248.809C291.384 249.875 291.61 250.924 291.978 251.903C292.375 252.961 292.647 253.939 292.966 255.046C293.479 256.829 294.408 258.395 295.834 259.131C298.759 260.641 300.329 257.224 301.126 254.249C302.397 249.498 303.213 244.669 303.596 239.68C304.019 234.159 304.644 228.628 304.471 223.07Z" fill="#89C5CC"/>
<path d="M318 243.5H274.5C273.948 243.5 273.5 243.948 273.5 244.5V288C273.5 288.552 273.948 289 274.5 289H318C318.552 289 319 288.552 319 288V244.5C319 243.948 318.552 243.5 318 243.5Z" fill="white"/>
<path d="M272.5 248.5H269.5C268.948 248.5 268.5 248.948 268.5 249.5V304C268.5 304.552 268.948 305 269.5 305H272.5C273.052 305 273.5 304.552 273.5 304V249.5C273.5 248.948 273.052 248.5 272.5 248.5Z" fill="#C5CFD6"/>
<path d="M297.5 248.5H294.5C293.948 248.5 293.5 248.948 293.5 249.5V304C293.5 304.552 293.948 305 294.5 305H297.5C298.052 305 298.5 304.552 298.5 304V249.5C298.5 248.948 298.052 248.5 297.5 248.5Z" fill="#C5CFD6"/>
<path d="M323 248.5H320C319.448 248.5 319 248.948 319 249.5V304C319 304.552 319.448 305 320 305H323C323.552 305 324 304.552 324 304V249.5C324 248.948 323.552 248.5 323 248.5Z" fill="#C5CFD6"/>
</g>
</svg>
