<svg width="31" height="42" viewBox="0 0 31 42" fill="none" xmlns="http://www.w3.org/2000/svg">
<g id="&#240;&#159;&#166;&#134; icon &#34;PDF File&#34;">
<path id="Vector" d="M29.8617 7.91146L23.0885 1.13828C22.362 0.411719 21.3771 0 20.3518 0H3.875C1.73568 0.00807292 0 1.74375 0 3.88307V37.4664C0 39.6057 1.73568 41.3414 3.875 41.3414H27.125C29.2643 41.3414 31 39.6057 31 37.4664V10.6563C31 9.63099 30.5883 8.63802 29.8617 7.91146ZM26.8102 10.3414H20.6667V4.19792L26.8102 10.3414ZM3.875 37.4664V3.88307H16.7917V12.2789C16.7917 13.3526 17.6555 14.2164 18.7292 14.2164H27.125V37.4664H3.875ZM24.0734 25.8656C23.0885 24.8969 20.2792 25.1633 18.8745 25.3409C17.4859 24.4932 16.5576 23.3227 15.9036 21.6031C16.2185 20.3034 16.719 18.3255 16.3396 17.0823C16.0005 14.9672 13.288 15.1771 12.9005 16.606C12.5453 17.9057 12.8682 19.7141 13.4656 22.0229C12.6583 23.9523 11.4555 26.5438 10.6078 28.0292C8.99323 28.8607 6.81354 30.1443 6.49062 31.7589C6.22422 33.0344 8.58958 36.2151 12.6341 29.2401C14.4424 28.6427 16.4122 27.9081 18.156 27.6175C19.6818 28.4409 21.4659 28.9898 22.6607 28.9898C24.7193 28.9898 24.9211 26.7133 24.0734 25.8656ZM8.08099 32.1464C8.49271 31.0404 10.0589 29.7648 10.5352 29.3208C9.0013 31.7669 8.08099 32.2029 8.08099 32.1464ZM14.6685 16.7594C15.2659 16.7594 15.2094 19.3508 14.8138 20.0531C14.4586 18.931 14.4667 16.7594 14.6685 16.7594ZM12.6987 27.787C13.4818 26.4227 14.1518 24.8 14.6927 23.3711C15.3628 24.5901 16.2185 25.5669 17.1227 26.237C15.4435 26.5841 13.9823 27.2945 12.6987 27.787ZM23.3227 27.3833C23.3227 27.3833 22.919 27.8677 20.3115 26.7536C23.1451 26.5438 23.6133 27.1896 23.3227 27.3833Z" fill="#636D77"/>
</g>
</svg>
