<svg width="131" height="132" viewBox="0 0 131 132" fill="none" xmlns="http://www.w3.org/2000/svg">
<g id="Group 40910">
<ellipse id="Ellipse 24" cx="65.5" cy="66" rx="65.5" ry="66" fill="#939393"/>
<path id="Vector" fill-rule="evenodd" clip-rule="evenodd" d="M44.5556 48.8143C44.5556 43.3507 46.7095 38.1108 50.5436 34.2475C54.3777 30.3841 59.5778 28.2137 65 28.2137C70.4222 28.2137 75.6223 30.3841 79.4564 34.2475C83.2905 38.1108 85.4444 43.3507 85.4444 48.8143C85.4444 54.2778 83.2905 59.5177 79.4564 63.381C75.6223 67.2444 70.4222 69.4148 65 69.4148C59.5778 69.4148 54.3777 67.2444 50.5436 63.381C46.7095 59.5177 44.5556 54.2778 44.5556 48.8143ZM44.5556 79.715C37.7778 79.715 31.2776 82.428 26.485 87.2572C21.6925 92.0864 19 98.6362 19 105.466C19 109.563 20.6155 113.493 23.491 116.391C26.3666 119.288 42 132 65 132H74L83.5 129.985L90 127.466L96.5 124.443C100.5 122.931 104.124 119.288 107 116.391C109.876 113.493 111 109.563 111 105.466C111 98.6362 108.308 92.0864 103.515 87.2572C98.7224 82.428 92.2222 79.715 85.4444 79.715H44.5556Z" fill="white"/>
</g>
</svg>
