<svg width="24" height="27" viewBox="0 0 24 27" fill="none" xmlns="http://www.w3.org/2000/svg">
<path d="M19.3332 25.4444C21.3583 25.4444 22.9998 23.8029 22.9998 21.7778C22.9998 19.7527 21.3583 18.1111 19.3332 18.1111C17.3081 18.1111 15.6665 19.7527 15.6665 21.7778C15.6665 23.8029 17.3081 25.4444 19.3332 25.4444Z" stroke="#636D77" stroke-width="1.83333" stroke-linecap="round" stroke-linejoin="round"/>
<path d="M19.3332 8.33333C21.3583 8.33333 22.9998 6.69171 22.9998 4.66667C22.9998 2.64163 21.3583 1 19.3332 1C17.3081 1 15.6665 2.64163 15.6665 4.66667C15.6665 6.69171 17.3081 8.33333 19.3332 8.33333Z" stroke="#636D77" stroke-width="1.83333" stroke-linecap="round" stroke-linejoin="round"/>
<path d="M4.66667 16.8889C6.69171 16.8889 8.33333 15.2473 8.33333 13.2222C8.33333 11.1971 6.69171 9.55556 4.66667 9.55556C2.64163 9.55556 1 11.1971 1 13.2222C1 15.2473 2.64163 16.8889 4.66667 16.8889Z" stroke="#636D77" stroke-width="1.83333" stroke-linecap="round" stroke-linejoin="round"/>
<path d="M16.2777 6.5L7.72217 11.3889" stroke="#636D77" stroke-width="1.83333"/>
<path d="M7.72217 15.0556L16.2777 19.9444" stroke="#636D77" stroke-width="1.83333"/>
</svg>
