<svg width="26" height="26" viewBox="0 0 26 26" fill="none" xmlns="http://www.w3.org/2000/svg">
<path d="M12.864 25.7279C10.5913 25.7279 8.44733 25.149 6.43198 23.9913C4.45951 22.8335 2.89439 21.2684 1.73663 19.2959C0.578878 17.3235 0 15.1795 0 12.864C0 10.5484 0.578878 8.40445 1.73663 6.43198C2.89439 4.45951 4.45951 2.89439 6.43198 1.73663C8.40445 0.578878 10.5484 0 12.864 0C15.1795 0 17.3235 0.578878 19.2959 1.73663C21.2684 2.89439 22.8335 4.45951 23.9913 6.43198C25.149 8.40445 25.7279 10.5484 25.7279 12.864C25.7279 15.1366 25.149 17.2806 23.9913 19.2959C22.8335 21.2684 21.2684 22.8335 19.2959 23.9913C17.3235 25.149 15.1795 25.7279 12.864 25.7279ZM18.0739 12.864L9.77661 6.68926V19.0387L18.0739 12.864Z" fill="#5667FD"/>
</svg>
